<?xml version="1.0" encoding="utf-8"?>
<!-- Svg Vector Icons : http://www.onlinewebfonts.com/icon -->
<!DOCTYPE svg PUBLIC "-//W3C//DTD SVG 1.1//EN" "http://www.w3.org/Graphics/SVG/1.1/DTD/svg11.dtd">
<svg fill="#473F3E" version="1.1" xmlns="http://www.w3.org/2000/svg" xmlns:xlink="http://www.w3.org/1999/xlink" x="0px" y="0px" viewBox="0 0 1000 1000" enable-background="new 0 0 1000 1000" xml:space="preserve">
<g><g transform="translate(0.000000,511.000000) scale(0.100000,-0.100000)"><path d="M4771.3,4981.1C4508,4910,4267.7,4706.3,4164,4466l-55.7-126.8h-395.9c-357.5,0-399.8-3.8-455.5-38.4c-76.9-46.1-121.1-128.8-121.1-230.6v-76.9h-388.2c-215.2,0-445.9-9.6-515.1-21.1c-369-59.6-680.4-365.2-747.6-736.1c-15.4-80.7-21.1-1189.7-21.1-3642c0-3832.3-3.8-3669,105.7-3886.1c71.1-138.4,236.4-307.5,372.9-380.6c232.6-123,63.4-117.2,3057.8-117.2c2994.4,0,2825.2-5.8,3057.8,117.2c136.5,73,301.8,242.2,372.9,380.6c109.6,217.2,105.7,53.8,105.7,3886.1c0,2452.4-5.8,3561.3-21.1,3642c-67.3,370.9-378.6,676.5-747.6,736.1c-69.2,11.5-299.8,21.1-513.2,21.1h-390.2v76.9c0,101.9-44.2,184.5-121.1,230.6c-55.7,34.6-98,38.4-455.5,38.4h-395.9L5836,4466C5663.1,4863.9,5188.3,5094.5,4771.3,4981.1z M5105.7,4491c101.9-25,222.9-124.9,269.1-221c17.3-36.5,40.4-121.1,48-186.4c13.5-92.3,28.8-128.8,76.9-174.9l57.7-59.6l403.6-5.8l403.6-5.8v-259.5v-257.5H5000H3635.4v257.5v259.5l401.7,5.8l403.6,5.8l57.7,55.7c36.5,34.6,63.4,84.6,69.2,124.9c46.1,282.5,115.3,384.4,313.3,455.5C4969.3,4516,5000,4517.9,5105.7,4491z M3135.7,3184.1c0-228.7,25-286.4,144.1-344c76.9-36.5,124.9-38.4,1720.1-38.4c1612.5,0,1641.3,0,1722,38.4c115.3,55.7,142.2,124.9,142.2,353.6v184.5h420.9c403.6,0,420.9-1.9,484.3-44.2c34.6-23.1,84.6-73,107.6-107.6l44.2-65.3V-392.6c0-3963,11.5-3638.2-132.6-3736.2l-69.2-46.1H5000H2280.5l-69.2,46.1c-144.1,98-132.6-226.8-132.6,3736.2v3553.7l44.2,65.3c23.1,34.6,73,84.6,107.6,107.6c63.4,42.3,80.7,44.2,484.3,44.2h420.9V3184.1z"/><path d="M3891,2202c-21.1-25-144.1-184.5-272.9-355.6c-128.8-173-236.4-313.3-242.2-313.3c-3.8,0-59.6,67.3-123,151.8c-63.4,82.7-128.8,155.7-146.1,163.4c-146.1,55.7-276.8-73-211.4-205.6c59.6-119.2,382.5-520.8,434.4-536.2c98-32.7,140.3,7.7,470.9,449.7c178.7,234.5,334.4,449.7,347.9,478.6c30.7,59.6,1.9,161.4-51.9,190.3C4033.3,2259.7,3933.3,2248.1,3891,2202z"/><path d="M4582.9,1763.8c-155.7-94.2-157.6-326.7-1.9-422.8c61.5-36.5,94.2-38.4,1228.1-38.4h1164.7l65.3,44.2c42.3,28.8,75,73,94.2,124.9c25,71.1,25,90.3,0,161.4c-19.2,51.9-51.9,96.1-94.2,124.9l-65.3,44.2H5809.1C4688.6,1802.3,4642.5,1800.3,4582.9,1763.8z"/><path d="M3921.8,804.8c-28.8-21.1-161.4-186.4-297.9-369C3389.4,122.5,3376,109,3349.1,143.6c-17.3,21.1-71.1,92.2-123,157.6c-50,65.4-113.4,126.9-142.2,138.4c-63.4,23.1-151.8-7.7-182.6-65.4c-44.2-84.6-21.1-142.2,157.6-382.5c209.5-280.6,234.5-303.7,317.1-303.7c34.6,0,80.7,15.4,101.9,34.6c21.1,17.3,182.6,226.8,361.3,465.1c263.3,353.6,322.9,444,322.9,495.9C4162,806.7,4016,879.7,3921.8,804.8z"/><path d="M4569.5,339.7C4419.6,222.4,4435,3.3,4598.3-85.1c61.5-32.7,138.4-34.6,1208.9-34.6c1070.5,0,1147.4,1.9,1208.9,34.6c163.4,88.4,178.7,307.5,28.8,424.8c-50,40.4-63.4,40.4-1237.7,40.4C4632.9,380,4619.5,380,4569.5,339.7z"/><path d="M3948.7-561.7c-21.1-9.6-159.5-174.9-305.6-367.1l-265.2-349.8l-38.4,48c-23.1,25-80.7,99.9-130.7,165.3c-86.5,111.5-98,119.2-169.1,119.2c-115.3,0-167.2-61.5-153.8-182.6c5.8-57.7,382.5-547.7,436.3-568.9c99.9-36.5,130.7-7.7,470.9,438.2c180.7,238.3,340.2,457.4,353.6,486.2c38.4,76.9,1.9,169.1-80.7,203.7c-34.6,15.4-67.3,26.9-69.2,25C3992.9-544.4,3971.8-552.1,3948.7-561.7z"/><path d="M4598.3-1057.6c-124.9-67.3-171.1-226.8-98-344c82.6-138.4,11.5-130.7,1306.9-130.7c1089.7,0,1168.5,1.9,1216.6,34.6c176.8,115.3,161.5,347.9-28.8,447.8c-42.3,23-249.9,26.9-1191.6,26.9C4734.8-1023,4659.8-1024.9,4598.3-1057.6z"/><path d="M3927.6-1959c-13.5-5.8-142.2-165.3-284.5-353.6c-142.2-188.3-261.4-344-267.1-344c-3.8,0-59.6,67.3-123,151.8c-63.4,82.6-128.8,155.7-146.1,163.4c-109.6,40.4-226.8-32.7-226.8-142.2c0-73,374.8-576.6,447.8-601.6c96.1-32.7,140.3,9.6,472.8,451.7c178.7,234.5,334.4,449.7,347.9,478.6c30.7,59.6,1.9,161.4-51.9,190.3C4058.3-1945.5,3969.8-1941.7,3927.6-1959z"/><path d="M4581-2483.6c-113.4-69.2-149.9-226.8-80.7-340.2c75-124.9,30.8-121.1,1312.7-121.1h1160.8l65.3,44.2c42.3,28.8,75,73,94.2,124.9c25,71.1,25,90.3,0,161.4c-19.2,51.9-51.9,96.1-94.2,124.9l-65.3,44.2H5809.1C4675.2-2445.2,4642.5-2447.1,4581-2483.6z"/></g></g>
</svg>