<?xml version="1.0" encoding="UTF-8"?>
<svg xmlns="http://www.w3.org/2000/svg" xmlns:xlink="http://www.w3.org/1999/xlink" viewBox="0 0 480 480" width="480px" height="480px">
<g id="surface71393238">
<path style=" stroke:none;fill-rule:nonzero;fill:rgb(27.843139%,24.705882%,24.313726%);fill-opacity:1;" d="M 263.03125 48 C 277.71875 48 290.511719 58.011719 294.0625 72.25 L 296 80 L 432 80 C 449.679688 80 464 94.320312 464 112 L 464 192 L 379.59375 192 C 374.042969 182.480469 363.855469 176 352.03125 176 C 340.207031 176 329.972656 182.480469 324.4375 192 L 155.5625 192 C 150.011719 182.480469 139.808594 176 128 176 C 116.191406 176 105.988281 182.480469 100.4375 192 L 16 192 L 16 112 C 16 94.320312 30.320312 80 48 80 L 184 80 L 185.9375 72.25 C 189.503906 58.011719 202.3125 48 217 48 Z M 100.4375 224 C 105.988281 233.519531 116.191406 240 128 240 C 139.808594 240 150.011719 233.519531 155.5625 224 L 324.4375 224 C 324.964844 224.902344 325.53125 225.777344 326.140625 226.625 C 267.914062 238.617188 223.996094 290.28125 223.996094 352 C 223.996094 368.964844 227.316406 385.167969 233.335938 400 L 64 400 C 46.320312 400 32 385.679688 32 368 L 32 224 Z M 379.5625 224 L 448 224 L 448 267.429688 C 429.972656 246.988281 405.53125 232.328125 377.863281 226.625 C 378.46875 225.78125 379.035156 224.902344 379.5625 224 Z M 379.5625 224 "/>
<path style=" stroke:none;fill-rule:nonzero;fill:rgb(27.843139%,24.705882%,24.313726%);fill-opacity:1;" d="M 475.308594 452.6875 L 430.15625 407.535156 C 441.339844 391.839844 447.996094 372.703125 447.996094 352 C 447.996094 299.054688 404.941406 256 351.996094 256 C 299.050781 256 255.996094 299.054688 255.996094 352 C 255.996094 404.945312 299.050781 448 351.996094 448 C 372.699219 448 391.835938 441.34375 407.53125 430.160156 L 452.683594 475.3125 C 455.804688 478.433594 459.898438 480 463.996094 480 C 468.09375 480 472.1875 478.433594 475.308594 475.3125 C 481.5625 469.054688 481.5625 458.929688 475.308594 452.6875 Z M 287.996094 352 C 287.996094 316.703125 316.699219 288 351.996094 288 C 387.292969 288 415.996094 316.703125 415.996094 352 C 415.996094 387.296875 387.292969 416 351.996094 416 C 316.699219 416 287.996094 387.296875 287.996094 352 Z M 287.996094 352 "/>
</g>
</svg>
