<svg id="svg" version="1.1" xmlns="http://www.w3.org/2000/svg" xmlns:xlink="http://www.w3.org/1999/xlink" width="400" height="401.70940170940173" viewBox="0, 0, 400,401.70940170940173"><g id="svgg">
<path id="path0" d="M34.985 36.500 C 34.881 36.775,34.841 91.180,34.898 157.400 L 35.000 277.800 199.200 277.800 L 363.400 277.800 363.400 157.000 L 363.400 36.200 199.288 36.100 C 68.207 36.019,35.137 36.100,34.985 36.500 M117.551 88.575 C 118.733 88.685,120.083 89.022,120.551 89.324 C 121.018 89.626,121.926 90.003,122.568 90.162 C 123.211 90.320,124.180 90.798,124.722 91.225 C 125.264 91.651,125.883 92.000,126.096 92.000 C 127.756 92.000,134.067 98.720,135.657 102.180 C 135.865 102.631,136.294 103.450,136.611 104.000 C 136.929 104.550,137.191 105.436,137.194 105.969 C 137.197 106.501,137.515 107.285,137.900 107.710 C 138.935 108.854,138.935 120.014,137.900 121.800 C 137.518 122.460,137.204 123.381,137.202 123.846 C 137.201 124.311,136.873 125.121,136.473 125.646 C 136.073 126.171,135.511 127.185,135.224 127.900 C 134.938 128.615,134.557 129.200,134.378 129.200 C 134.200 129.200,133.953 129.518,133.830 129.906 C 133.158 132.024,127.420 136.901,123.600 138.602 C 122.830 138.945,121.660 139.534,121.000 139.913 C 119.005 141.055,105.630 140.921,103.184 139.734 C 102.203 139.258,100.950 138.671,100.400 138.430 C 99.438 138.008,98.673 137.533,96.160 135.800 C 93.991 134.305,90.000 129.899,90.000 129.002 C 90.000 128.718,89.753 128.391,89.451 128.275 C 89.150 128.159,88.779 127.569,88.627 126.964 C 88.475 126.358,88.002 125.420,87.575 124.878 C 87.149 124.336,86.799 123.331,86.798 122.646 C 86.796 121.961,86.493 120.860,86.125 120.200 C 85.277 118.682,85.103 110.480,85.899 109.522 C 86.173 109.191,86.580 107.961,86.802 106.788 C 87.025 105.615,87.461 104.373,87.772 104.028 C 88.083 103.683,88.465 102.890,88.620 102.268 C 88.776 101.645,89.150 101.041,89.451 100.925 C 89.753 100.809,90.000 100.474,90.000 100.179 C 90.000 99.885,90.629 98.960,91.398 98.122 C 92.167 97.285,92.797 96.497,92.798 96.372 C 92.801 96.039,97.906 92.000,98.324 92.000 C 98.519 92.000,99.093 91.640,99.600 91.200 C 100.107 90.760,100.813 90.400,101.167 90.400 C 101.522 90.400,102.529 90.012,103.406 89.539 C 105.725 88.286,110.733 87.944,117.551 88.575 M270.918 103.514 C 271.505 104.127,272.106 105.252,272.254 106.014 C 272.401 106.777,272.769 107.760,273.071 108.200 C 273.373 108.640,273.810 109.702,274.042 110.560 C 274.273 111.418,274.719 112.376,275.032 112.689 C 275.344 113.001,275.600 113.760,275.600 114.375 C 275.600 114.989,275.934 115.921,276.342 116.446 C 276.750 116.971,277.205 118.057,277.353 118.860 C 277.500 119.663,277.872 120.528,278.179 120.783 C 278.486 121.038,278.856 121.945,279.000 122.800 C 279.144 123.655,279.514 124.562,279.821 124.817 C 280.128 125.072,280.495 125.937,280.638 126.740 C 280.781 127.543,281.235 128.761,281.649 129.447 C 282.062 130.133,282.401 131.033,282.403 131.447 C 282.404 131.861,282.763 132.740,283.200 133.400 C 283.637 134.060,284.002 134.870,284.010 135.200 C 284.018 135.530,284.468 136.700,285.009 137.800 C 285.550 138.900,285.996 140.070,285.999 140.400 C 286.002 140.730,286.363 141.540,286.800 142.200 C 287.237 142.860,287.602 143.670,287.610 144.000 C 287.618 144.330,288.068 145.500,288.609 146.600 C 289.150 147.700,289.594 148.787,289.596 149.015 C 289.598 149.244,289.960 150.137,290.400 151.000 C 290.840 151.863,291.201 152.846,291.203 153.185 C 291.204 153.523,291.563 154.340,292.000 155.000 C 292.437 155.660,292.797 156.560,292.800 157.000 C 292.803 157.440,293.163 158.340,293.600 159.000 C 294.037 159.660,294.396 160.539,294.397 160.953 C 294.399 161.367,294.741 162.267,295.157 162.953 C 295.573 163.639,296.045 164.820,296.206 165.577 C 296.366 166.335,296.746 167.203,297.049 167.506 C 297.352 167.809,297.712 168.761,297.850 169.621 C 297.987 170.481,298.343 171.386,298.639 171.633 C 298.936 171.879,299.300 172.737,299.447 173.540 C 299.595 174.343,300.050 175.429,300.458 175.954 C 300.866 176.479,301.200 177.267,301.200 177.707 C 301.200 178.146,301.545 179.067,301.966 179.753 C 302.388 180.439,302.857 181.669,303.008 182.486 C 303.160 183.303,303.535 184.180,303.842 184.435 C 304.149 184.690,304.402 185.191,304.404 185.549 C 304.406 185.907,304.850 187.100,305.391 188.200 C 305.932 189.300,306.381 190.470,306.389 190.800 C 306.397 191.130,306.752 191.972,307.178 192.671 C 307.604 193.370,308.072 194.578,308.218 195.357 C 308.364 196.135,308.736 196.981,309.045 197.238 C 309.354 197.494,309.718 198.397,309.853 199.244 C 309.989 200.092,310.343 200.986,310.639 201.233 C 310.936 201.479,311.296 202.337,311.440 203.140 C 311.584 203.943,311.965 204.902,312.287 205.271 C 312.609 205.641,313.041 206.693,313.247 207.611 C 313.453 208.528,313.870 209.528,314.174 209.832 C 314.478 210.135,314.847 211.097,314.995 211.969 C 315.142 212.841,315.504 213.755,315.800 214.000 C 316.096 214.245,316.456 215.145,316.600 216.000 C 316.744 216.855,317.114 217.762,317.421 218.017 C 317.728 218.272,318.096 219.137,318.240 219.940 C 318.384 220.743,318.735 221.670,319.021 222.000 C 319.306 222.330,319.753 223.450,320.014 224.488 C 320.275 225.526,320.739 226.583,321.044 226.837 C 321.350 227.090,321.606 227.681,321.613 228.149 C 321.619 228.617,322.068 229.900,322.609 231.000 C 323.150 232.100,323.594 233.291,323.596 233.646 C 323.598 234.001,323.932 234.721,324.338 235.246 C 324.744 235.771,325.196 236.818,325.343 237.574 C 325.489 238.329,325.853 239.229,326.151 239.574 C 326.896 240.437,327.277 243.225,326.738 243.875 C 326.148 244.586,74.823 244.663,74.112 243.952 C 73.595 243.435,74.851 239.658,76.075 238.046 C 76.474 237.521,76.800 236.830,76.800 236.509 C 76.800 236.189,77.160 235.469,77.600 234.909 C 78.040 234.350,78.400 233.578,78.400 233.195 C 78.400 232.812,78.669 232.275,78.998 232.002 C 79.327 231.728,79.806 230.806,80.061 229.953 C 80.317 229.099,80.664 228.400,80.832 228.400 C 81.000 228.400,81.352 227.725,81.613 226.900 C 81.874 226.075,82.309 225.220,82.578 225.000 C 82.847 224.780,83.198 224.074,83.359 223.432 C 83.519 222.789,83.998 221.820,84.425 221.278 C 84.851 220.736,85.200 220.030,85.200 219.709 C 85.200 219.389,85.560 218.669,86.000 218.109 C 86.440 217.550,86.800 216.781,86.800 216.400 C 86.800 216.019,87.135 215.279,87.545 214.754 C 87.955 214.229,88.426 213.350,88.592 212.800 C 88.759 212.250,89.122 211.530,89.400 211.200 C 89.678 210.870,90.039 210.150,90.202 209.600 C 90.365 209.050,90.666 208.389,90.872 208.131 C 91.405 207.463,93.997 202.267,93.999 201.863 C 93.999 201.678,94.360 201.069,94.800 200.509 C 95.240 199.950,95.600 199.230,95.600 198.909 C 95.600 198.589,95.960 197.869,96.400 197.309 C 96.840 196.750,97.200 195.978,97.200 195.595 C 97.200 195.212,97.469 194.675,97.798 194.402 C 98.127 194.128,98.606 193.206,98.861 192.353 C 99.117 191.499,99.464 190.800,99.632 190.800 C 99.800 190.800,100.152 190.125,100.413 189.300 C 100.674 188.475,101.109 187.620,101.378 187.400 C 101.647 187.180,101.998 186.474,102.159 185.832 C 102.319 185.189,102.798 184.220,103.225 183.678 C 103.651 183.136,104.000 182.411,104.000 182.068 C 104.000 181.320,105.948 179.200,106.635 179.200 C 106.902 179.200,112.919 184.960,120.006 192.000 C 127.093 199.040,133.039 204.800,133.219 204.800 C 133.399 204.800,133.648 205.115,133.772 205.500 C 134.209 206.851,135.977 207.289,136.485 206.172 C 136.729 205.638,137.077 205.200,137.259 205.200 C 137.441 205.200,137.871 204.615,138.216 203.900 C 139.299 201.654,140.232 200.110,140.928 199.415 C 141.298 199.045,141.600 198.508,141.600 198.220 C 141.600 197.933,141.880 197.465,142.223 197.181 C 142.566 196.896,143.111 196.109,143.434 195.432 C 144.234 193.755,144.958 192.541,145.658 191.703 C 145.981 191.316,146.463 190.550,146.729 190.000 C 146.995 189.450,147.749 188.190,148.405 187.200 C 149.061 186.210,149.871 184.815,150.204 184.100 C 150.538 183.385,150.976 182.800,151.178 182.800 C 151.381 182.800,151.666 182.421,151.813 181.959 C 152.073 181.140,153.389 178.995,154.600 177.419 C 154.930 176.989,155.200 176.426,155.200 176.168 C 155.200 175.909,155.480 175.465,155.823 175.181 C 156.166 174.896,156.697 174.064,157.003 173.332 C 157.309 172.599,157.734 172.000,157.948 172.000 C 158.162 172.000,158.451 171.479,158.591 170.841 C 158.731 170.204,159.195 169.366,159.623 168.979 C 160.050 168.593,160.400 168.136,160.400 167.965 C 160.400 167.422,162.904 163.600,163.260 163.600 C 163.447 163.600,163.600 163.274,163.600 162.875 C 163.600 162.477,163.963 161.762,164.406 161.286 C 164.849 160.810,165.393 160.011,165.614 159.510 C 165.835 159.010,166.546 157.790,167.194 156.800 C 167.843 155.810,168.784 154.301,169.286 153.446 C 170.218 151.861,170.523 151.364,171.647 149.600 C 171.997 149.050,172.805 147.752,173.442 146.715 C 175.608 143.188,174.561 142.389,195.815 163.779 C 215.566 183.657,215.883 183.926,216.634 181.457 C 216.777 180.986,217.172 180.284,217.512 179.897 C 217.851 179.511,218.325 178.856,218.564 178.441 C 219.445 176.919,224.575 169.383,225.079 168.871 C 225.366 168.581,225.600 168.086,225.600 167.771 C 225.600 167.457,225.778 167.200,225.995 167.200 C 226.212 167.200,226.634 166.615,226.933 165.900 C 227.232 165.185,227.774 164.353,228.138 164.051 C 228.502 163.749,228.800 163.248,228.800 162.938 C 228.800 162.629,229.057 162.276,229.372 162.155 C 229.687 162.035,230.137 161.455,230.372 160.868 C 230.607 160.281,231.519 158.810,232.399 157.600 C 233.279 156.390,233.999 155.169,233.999 154.887 C 234.000 154.606,234.263 154.274,234.585 154.150 C 234.906 154.027,235.272 153.604,235.397 153.211 C 235.522 152.817,235.933 152.122,236.312 151.665 C 236.690 151.209,237.608 149.838,238.351 148.618 C 239.094 147.398,239.859 146.400,240.051 146.400 C 240.243 146.400,240.400 146.144,240.400 145.831 C 240.400 145.518,240.850 144.727,241.400 144.073 C 241.950 143.419,242.400 142.708,242.400 142.491 C 242.400 142.275,242.698 141.851,243.062 141.549 C 243.426 141.247,243.968 140.415,244.267 139.700 C 244.566 138.985,244.959 138.400,245.141 138.400 C 245.323 138.400,245.680 137.943,245.934 137.385 C 246.188 136.827,246.579 136.152,246.803 135.885 C 247.533 135.014,250.892 129.815,251.122 129.200 C 251.246 128.870,251.674 128.365,252.074 128.077 C 252.473 127.790,252.800 127.393,252.800 127.195 C 252.800 126.759,254.545 124.044,255.390 123.166 C 255.726 122.818,256.000 122.351,256.000 122.128 C 256.000 121.906,256.360 121.398,256.800 121.000 C 257.240 120.602,257.600 120.034,257.600 119.738 C 257.600 119.442,257.946 118.854,258.370 118.430 C 258.793 118.007,259.357 117.253,259.624 116.755 C 259.890 116.258,260.272 115.659,260.471 115.425 C 260.671 115.191,261.452 114.024,262.206 112.830 C 262.961 111.637,263.728 110.557,263.912 110.430 C 264.095 110.304,264.482 109.615,264.771 108.900 C 265.060 108.185,265.445 107.600,265.627 107.600 C 265.808 107.600,266.191 107.174,266.478 106.652 C 266.765 106.131,267.409 104.961,267.908 104.052 C 268.978 102.106,269.482 102.015,270.918 103.514 M399.000 400.000 C 398.836 400.266,331.863 400.400,199.376 400.400 C 22.420 400.400,0.000 400.467,0.000 401.000 C 0.000 401.533,22.489 401.600,200.000 401.600 L 400.000 401.600 400.000 400.600 C 400.000 399.590,399.455 399.263,399.000 400.000 " stroke="none" fill="#fbfbfb" fill-rule="evenodd"></path><path id="path1" d="M398.200 199.700 L 398.200 399.400 199.000 399.601 L -0.200 399.801 198.726 399.901 C 335.270 399.969,397.895 399.870,398.426 399.586 C 399.616 398.949,399.635 0.000,398.446 -0.000 C 398.311 -0.000,398.200 89.865,398.200 199.700 M34.480 35.280 C 34.216 35.544,34.005 36.039,34.012 36.380 C 34.022 36.890,34.096 36.876,34.432 36.300 C 35.107 35.141,363.368 35.219,363.989 36.379 C 364.576 37.476,364.368 277.392,363.780 277.980 C 363.487 278.273,313.497 278.370,198.983 278.300 L 34.608 278.200 34.351 277.000 C 34.113 275.886,34.091 275.873,34.047 276.820 C 34.021 277.381,34.216 278.056,34.480 278.320 C 35.088 278.928,363.039 279.016,364.000 278.408 C 364.868 277.860,364.919 36.507,364.051 35.461 C 363.336 34.600,35.340 34.420,34.480 35.280 M112.400 89.179 C 116.857 89.349,118.496 89.562,119.480 90.100 C 120.184 90.485,121.052 90.800,121.409 90.800 C 123.042 90.800,129.898 95.747,131.915 98.381 C 133.776 100.810,134.709 102.282,135.007 103.259 C 135.165 103.776,135.524 104.470,135.804 104.800 C 136.084 105.130,136.446 106.208,136.608 107.195 C 136.770 108.182,137.149 109.689,137.451 110.545 C 138.419 113.289,137.486 121.942,135.957 124.400 C 135.752 124.730,135.307 125.603,134.969 126.341 C 134.632 127.078,134.190 127.888,133.988 128.141 C 130.710 132.239,129.422 133.669,128.320 134.439 C 127.594 134.947,126.910 135.469,126.800 135.600 C 123.842 139.127,110.147 141.410,105.256 139.191 C 104.297 138.756,103.281 138.400,102.997 138.400 C 101.392 138.400,96.924 135.368,93.861 132.200 C 90.952 129.190,91.037 129.316,88.698 124.600 C 85.309 117.769,86.819 104.829,91.638 99.400 C 96.049 94.431,100.154 91.460,103.767 90.622 C 105.028 90.329,106.883 89.200,106.103 89.200 C 105.573 89.200,103.878 89.898,100.000 91.712 C 92.582 95.183,85.982 105.967,86.004 114.580 C 86.026 123.088,91.870 133.148,99.087 137.100 C 99.589 137.375,100.495 137.869,101.100 138.198 C 101.705 138.526,102.475 138.796,102.811 138.798 C 103.147 138.799,103.867 139.115,104.411 139.500 C 105.835 140.508,118.469 140.546,120.000 139.548 C 120.550 139.189,121.526 138.773,122.168 138.623 C 122.811 138.473,123.780 138.002,124.322 137.575 C 124.864 137.149,125.479 136.800,125.688 136.800 C 127.331 136.800,133.777 129.950,135.097 126.800 C 135.419 126.030,135.890 125.149,136.142 124.841 C 136.394 124.534,136.832 123.364,137.115 122.241 C 137.398 121.119,137.819 119.480,138.050 118.600 C 140.450 109.444,133.475 96.026,123.958 91.491 C 118.517 88.898,118.045 88.794,112.126 88.879 L 106.600 88.958 112.400 89.179 M265.368 109.102 C 263.231 112.346,261.014 115.720,260.442 116.600 C 259.870 117.480,259.308 118.290,259.192 118.400 C 259.076 118.510,257.076 121.480,254.748 125.000 C 252.419 128.520,249.633 132.727,248.557 134.349 C 247.481 135.970,246.416 137.590,246.192 137.949 C 245.967 138.307,245.247 139.394,244.592 140.364 C 243.936 141.334,243.130 142.544,242.800 143.053 C 242.470 143.562,241.546 144.928,240.747 146.089 C 239.269 148.238,233.335 157.156,232.592 158.346 C 232.367 158.706,231.647 159.792,230.992 160.760 C 230.336 161.728,229.620 162.808,229.401 163.160 C 229.182 163.512,228.597 164.373,228.101 165.073 C 227.605 165.774,227.200 166.530,227.200 166.753 C 227.200 166.977,226.954 167.304,226.654 167.480 C 226.354 167.656,225.809 168.340,225.442 169.000 C 225.076 169.660,224.466 170.670,224.088 171.244 C 215.827 183.781,216.261 183.200,215.157 183.200 C 214.619 183.200,208.006 176.815,195.473 164.193 C 175.924 144.505,175.318 143.985,174.382 146.100 C 174.163 146.595,173.450 147.810,172.798 148.800 C 172.146 149.790,171.388 151.050,171.113 151.600 C 170.839 152.150,169.936 153.590,169.108 154.800 C 168.279 156.010,167.601 157.197,167.601 157.438 C 167.600 157.679,167.240 158.202,166.800 158.600 C 166.360 158.998,166.000 159.482,166.000 159.675 C 166.000 159.868,165.218 161.235,164.262 162.713 C 163.306 164.191,161.551 167.020,160.362 169.000 C 159.174 170.980,158.063 172.780,157.895 173.000 C 157.002 174.166,155.600 176.481,155.600 176.789 C 155.600 176.984,155.353 177.390,155.052 177.691 C 154.750 177.992,154.205 178.770,153.840 179.420 C 153.474 180.069,152.826 181.140,152.399 181.800 C 151.972 182.460,151.251 183.630,150.798 184.400 C 150.344 185.170,149.443 186.610,148.794 187.600 C 148.146 188.590,147.436 189.808,147.216 190.306 C 146.996 190.804,146.475 191.704,146.060 192.306 C 144.447 194.643,141.729 199.034,141.483 199.700 C 141.341 200.085,141.059 200.400,140.856 200.400 C 140.653 200.400,140.382 200.817,140.254 201.326 C 140.126 201.836,139.702 202.637,139.311 203.107 C 138.920 203.577,138.060 204.867,137.400 205.973 C 136.740 207.080,136.064 207.988,135.897 207.992 C 135.565 208.001,128.528 201.190,115.362 188.118 L 106.819 179.635 105.653 180.617 C 105.012 181.156,104.364 182.093,104.212 182.699 C 104.061 183.304,103.704 184.070,103.419 184.400 C 103.134 184.730,102.684 185.675,102.420 186.500 C 102.155 187.325,101.772 188.000,101.569 188.000 C 101.366 188.000,101.200 188.206,101.200 188.458 C 101.200 188.866,98.949 193.646,98.026 195.200 C 97.830 195.530,95.831 199.538,93.584 204.108 C 91.337 208.677,89.342 212.512,89.150 212.631 C 88.957 212.750,88.800 213.172,88.800 213.570 C 88.800 213.967,88.440 214.750,88.000 215.309 C 87.560 215.869,87.200 216.589,87.200 216.909 C 87.200 217.230,86.865 217.921,86.455 218.446 C 86.045 218.971,85.574 219.850,85.408 220.400 C 85.241 220.950,84.879 221.670,84.603 222.000 C 84.327 222.330,83.884 223.275,83.620 224.100 C 83.355 224.925,82.972 225.600,82.769 225.600 C 82.566 225.600,82.400 225.806,82.400 226.058 C 82.400 226.463,80.168 231.208,79.228 232.800 C 76.291 237.776,74.473 242.713,75.280 243.520 C 76.115 244.355,325.837 244.203,326.157 243.367 C 326.521 242.420,326.450 240.878,326.031 240.619 C 325.827 240.493,325.351 239.448,324.973 238.295 C 324.594 237.143,324.041 235.845,323.742 235.411 C 323.444 234.977,323.194 234.347,323.187 234.011 C 323.181 233.675,322.732 232.500,322.191 231.400 C 321.650 230.300,321.206 229.174,321.204 228.899 C 321.202 228.623,320.840 227.725,320.400 226.904 C 319.960 226.084,319.600 225.184,319.600 224.904 C 319.600 224.625,319.240 223.725,318.800 222.904 C 318.360 222.084,318.000 221.134,318.000 220.795 C 318.000 220.456,317.711 219.766,317.358 219.261 C 317.005 218.757,316.570 217.862,316.392 217.272 C 316.142 216.443,316.061 216.382,316.034 217.006 C 316.015 217.449,316.346 218.457,316.768 219.245 C 317.191 220.034,317.738 221.426,317.984 222.339 C 318.230 223.253,318.584 224.000,318.771 224.000 C 318.958 224.000,319.234 224.654,319.384 225.454 C 319.534 226.254,320.004 227.556,320.428 228.348 C 320.853 229.140,321.201 230.061,321.203 230.394 C 321.204 230.727,321.563 231.540,322.000 232.200 C 322.437 232.860,322.796 233.673,322.797 234.006 C 322.799 234.339,323.160 235.284,323.600 236.104 C 324.040 236.925,324.400 237.811,324.400 238.072 C 324.400 238.334,324.778 239.328,325.240 240.282 C 325.701 241.236,325.977 242.283,325.852 242.609 C 325.652 243.131,310.731 243.189,200.712 243.101 L 75.800 243.000 75.681 241.783 C 75.604 240.998,75.852 240.232,76.381 239.622 C 76.831 239.103,77.200 238.369,77.200 237.993 C 77.200 237.616,77.549 236.864,77.975 236.322 C 78.402 235.780,78.869 234.863,79.014 234.285 C 79.160 233.706,79.531 233.023,79.839 232.767 C 80.148 232.511,80.400 232.139,80.400 231.940 C 80.400 231.610,82.736 226.641,83.568 225.200 C 83.759 224.870,84.112 224.150,84.354 223.600 C 84.596 223.050,84.976 222.330,85.197 222.000 C 85.419 221.670,85.780 220.950,85.999 220.400 C 86.219 219.850,86.566 219.130,86.770 218.800 C 86.975 218.470,88.178 216.076,89.443 213.479 C 90.708 210.883,91.871 208.680,92.027 208.583 C 92.184 208.487,92.432 207.925,92.580 207.335 C 92.728 206.746,93.198 205.820,93.625 205.278 C 94.051 204.736,94.400 203.984,94.400 203.607 C 94.400 203.231,94.760 202.507,95.200 202.000 C 95.640 201.493,96.000 200.769,96.000 200.393 C 96.000 200.016,96.335 199.279,96.745 198.754 C 97.155 198.229,97.626 197.350,97.792 196.800 C 97.959 196.250,98.322 195.530,98.600 195.200 C 98.878 194.870,99.238 194.150,99.400 193.600 C 99.562 193.050,99.921 192.330,100.197 192.000 C 100.473 191.670,100.911 190.739,101.170 189.932 C 101.429 189.125,101.902 188.248,102.220 187.983 C 102.539 187.718,102.800 187.188,102.800 186.805 C 102.800 186.422,103.149 185.664,103.575 185.122 C 104.002 184.580,104.467 183.673,104.609 183.106 C 104.751 182.540,105.295 181.674,105.818 181.183 L 106.768 180.290 111.816 185.245 C 114.592 187.970,121.000 194.295,126.056 199.300 C 131.111 204.305,135.491 208.400,135.789 208.400 C 136.378 208.400,138.800 205.330,138.800 204.583 C 138.800 204.331,139.160 203.798,139.600 203.400 C 140.040 203.002,140.401 202.479,140.402 202.238 C 140.404 201.997,141.213 200.630,142.200 199.200 C 143.187 197.770,143.996 196.403,143.998 196.162 C 143.999 195.921,144.360 195.398,144.800 195.000 C 145.240 194.602,145.600 194.056,145.600 193.787 C 145.600 193.518,145.880 193.065,146.223 192.781 C 146.566 192.496,147.115 191.709,147.445 191.032 C 148.376 189.115,149.442 187.272,150.031 186.562 C 150.578 185.903,150.713 185.689,152.304 182.954 C 153.305 181.234,153.462 180.981,155.900 177.168 C 156.835 175.706,157.600 174.333,157.600 174.117 C 157.600 173.901,157.955 173.402,158.390 173.009 C 158.824 172.616,159.297 171.923,159.441 171.470 C 159.585 171.016,160.289 169.812,161.005 168.793 C 161.720 167.775,162.603 166.415,162.965 165.771 C 163.328 165.127,163.974 164.060,164.401 163.400 C 164.828 162.740,165.549 161.570,166.002 160.800 C 166.456 160.030,167.357 158.590,168.006 157.600 C 168.654 156.610,169.371 155.440,169.600 155.000 C 169.829 154.560,170.551 153.390,171.205 152.400 C 171.859 151.410,172.593 150.105,172.836 149.500 C 173.079 148.895,173.407 148.400,173.565 148.400 C 173.723 148.400,174.158 147.759,174.531 146.975 C 175.539 144.862,175.532 144.856,188.844 158.237 C 209.397 178.896,214.386 183.802,214.801 183.760 C 215.020 183.738,215.468 183.693,215.795 183.660 C 216.314 183.608,217.623 181.946,219.036 179.546 C 219.275 179.139,219.770 178.475,220.136 178.071 C 220.501 177.667,220.800 177.197,220.800 177.026 C 220.800 176.855,221.250 176.181,221.800 175.527 C 222.350 174.873,222.800 174.082,222.800 173.769 C 222.800 173.456,222.954 173.200,223.142 173.200 C 223.330 173.200,224.005 172.358,224.642 171.330 C 225.279 170.301,227.465 166.961,229.500 163.907 C 231.535 160.853,233.200 158.200,233.200 158.011 C 233.200 157.821,233.335 157.607,233.500 157.533 C 233.789 157.405,235.734 154.668,236.585 153.191 C 236.813 152.796,238.395 150.410,240.100 147.890 C 241.805 145.370,243.200 143.104,243.200 142.854 C 243.200 142.604,243.354 142.400,243.542 142.400 C 243.730 142.400,244.536 141.365,245.335 140.100 C 246.133 138.835,246.970 137.530,247.195 137.200 C 249.367 134.012,255.809 124.247,257.000 122.338 C 257.220 121.986,258.660 119.855,260.200 117.604 C 261.740 115.353,263.187 113.191,263.416 112.799 C 263.644 112.406,264.087 111.777,264.400 111.400 C 265.032 110.639,265.380 110.074,266.708 107.654 C 267.208 106.744,267.793 106.000,268.008 106.000 C 268.224 106.000,268.400 105.752,268.400 105.449 C 268.400 105.146,268.650 104.691,268.955 104.438 C 269.657 103.855,271.600 105.997,271.600 107.354 C 271.600 107.845,271.867 108.596,272.194 109.024 C 272.520 109.451,272.980 110.488,273.217 111.328 C 273.715 113.103,275.196 115.689,275.199 114.789 C 275.199 114.453,274.956 113.823,274.657 113.389 C 274.358 112.955,273.885 111.880,273.605 111.000 C 273.325 110.120,272.963 109.220,272.801 109.000 C 272.639 108.780,272.206 107.700,271.840 106.600 C 271.474 105.500,270.742 104.286,270.215 103.902 L 269.255 103.204 265.368 109.102 M275.206 116.200 C 275.206 116.640,275.563 117.540,276.000 118.200 C 276.437 118.860,276.797 119.760,276.800 120.200 C 276.803 120.640,277.163 121.540,277.600 122.200 C 278.037 122.860,278.396 123.673,278.397 124.006 C 278.399 124.339,278.760 125.284,279.200 126.104 C 279.640 126.925,280.002 127.823,280.004 128.099 C 280.006 128.374,280.450 129.500,280.991 130.600 C 281.532 131.700,281.982 132.870,281.990 133.200 C 282.012 134.086,283.594 136.372,283.597 135.524 C 283.599 135.152,283.425 134.739,283.210 134.606 C 282.996 134.474,282.564 133.518,282.251 132.483 C 281.938 131.447,281.394 130.060,281.043 129.400 C 280.692 128.740,280.403 127.930,280.400 127.600 C 280.397 127.270,280.037 126.460,279.600 125.800 C 279.163 125.140,278.804 124.327,278.803 123.994 C 278.801 123.661,278.440 122.716,278.000 121.896 C 277.560 121.075,277.194 120.177,277.187 119.901 C 277.165 119.010,275.207 115.352,275.206 116.200 M283.604 136.953 C 283.602 137.367,283.938 138.267,284.351 138.953 C 284.765 139.639,285.219 140.857,285.362 141.660 C 285.505 142.463,285.886 143.340,286.211 143.609 C 286.535 143.878,286.802 144.391,286.804 144.749 C 286.808 145.516,288.769 149.630,288.787 148.911 C 288.794 148.642,288.440 147.607,288.000 146.611 C 287.560 145.615,286.840 143.985,286.400 142.989 C 285.960 141.993,285.594 140.958,285.587 140.689 C 285.566 139.848,283.608 136.159,283.604 136.953 M288.825 149.901 C 288.811 150.177,289.160 151.075,289.600 151.896 C 290.040 152.716,290.400 153.666,290.400 154.005 C 290.400 154.344,290.644 154.977,290.943 155.411 C 291.242 155.845,291.718 156.920,292.002 157.800 C 292.286 158.680,292.851 160.027,293.259 160.794 C 293.666 161.561,294.000 162.416,294.000 162.696 C 294.000 162.975,294.360 163.875,294.800 164.696 C 295.240 165.516,295.601 166.461,295.601 166.794 C 295.602 167.127,295.935 167.944,296.340 168.608 C 296.745 169.273,297.199 170.470,297.349 171.268 C 297.499 172.066,297.872 172.928,298.179 173.183 C 298.486 173.438,298.856 174.345,299.000 175.200 C 299.144 176.055,299.518 176.966,299.831 177.226 C 300.144 177.486,300.414 177.991,300.432 178.349 C 300.449 178.707,300.548 178.792,300.652 178.537 C 300.757 178.283,300.472 177.386,300.021 176.543 C 299.569 175.701,299.200 174.784,299.200 174.504 C 299.200 174.225,298.840 173.325,298.400 172.504 C 297.960 171.684,297.594 170.739,297.587 170.406 C 297.581 170.073,297.132 168.900,296.591 167.800 C 296.050 166.700,295.606 165.507,295.604 165.149 C 295.602 164.791,295.330 164.274,295.000 164.000 C 294.670 163.726,294.400 163.232,294.400 162.901 C 294.400 162.570,293.950 161.243,293.400 159.950 C 292.850 158.658,291.941 156.475,291.381 155.100 C 289.884 151.429,288.853 149.331,288.825 149.901 M300.813 179.851 C 300.806 180.319,301.054 180.913,301.365 181.171 C 301.676 181.429,302.144 182.531,302.405 183.621 C 302.666 184.711,303.037 185.700,303.229 185.818 C 303.421 185.937,303.780 186.791,304.026 187.717 C 304.273 188.643,304.708 189.670,304.993 190.000 C 305.278 190.330,305.631 191.167,305.779 191.861 C 305.926 192.554,306.396 193.808,306.823 194.646 C 307.250 195.484,307.600 196.451,307.600 196.796 C 307.600 197.140,307.844 197.777,308.143 198.211 C 308.442 198.645,308.896 199.645,309.152 200.433 C 309.408 201.221,309.974 202.564,310.409 203.417 C 310.844 204.271,311.200 205.187,311.200 205.452 C 311.200 205.718,311.463 206.445,311.784 207.068 C 312.878 209.187,314.318 212.715,314.585 213.932 C 314.732 214.599,315.110 215.359,315.426 215.621 C 316.168 216.237,316.144 215.624,315.387 214.624 C 315.064 214.196,314.800 213.564,314.800 213.218 C 314.800 212.871,314.440 211.916,314.000 211.096 C 313.560 210.275,313.198 209.377,313.196 209.101 C 313.194 208.826,312.750 207.700,312.209 206.600 C 311.668 205.500,311.219 204.325,311.213 203.989 C 311.206 203.653,310.954 203.023,310.654 202.589 C 310.354 202.155,309.972 201.350,309.807 200.800 C 309.641 200.250,309.077 198.850,308.553 197.688 C 308.029 196.527,307.600 195.352,307.600 195.077 C 307.600 194.803,307.351 194.222,307.046 193.787 C 306.741 193.352,306.304 192.367,306.074 191.598 C 305.483 189.619,303.582 185.072,303.157 184.620 C 302.961 184.411,302.798 183.961,302.796 183.620 C 302.790 182.600,300.827 178.869,300.813 179.851 " stroke="none" fill="#dcdcdc" fill-rule="evenodd"></path><path id="path2" d="M0.000 200.600 L 0.000 399.200 198.800 399.200 L 397.600 399.200 397.600 200.600 L 397.600 2.000 198.800 2.000 L 0.000 2.000 0.000 200.600 M364.056 34.100 C 365.664 35.422,365.637 33.134,365.516 157.600 C 365.422 254.319,365.301 277.573,364.886 278.300 L 364.371 279.201 199.086 279.100 L 33.800 279.000 33.699 156.929 C 33.608 46.350,33.658 34.799,34.228 34.229 C 35.079 33.379,363.021 33.250,364.056 34.100 M106.645 90.351 C 106.215 90.825,105.220 91.173,103.940 91.296 C 102.826 91.403,101.783 91.704,101.622 91.964 C 101.324 92.446,99.483 93.567,97.500 94.473 C 96.895 94.749,96.400 95.210,96.400 95.498 C 96.400 95.785,95.950 96.191,95.400 96.400 C 94.850 96.609,94.400 97.055,94.400 97.390 C 94.400 97.726,94.130 98.000,93.800 98.000 C 93.470 98.000,93.200 98.171,93.200 98.379 C 93.200 98.588,92.750 99.244,92.200 99.838 C 91.650 100.431,91.200 101.249,91.200 101.655 C 91.200 102.061,90.840 102.618,90.400 102.893 C 89.930 103.186,89.600 103.826,89.600 104.442 C 89.600 105.020,89.200 106.000,88.712 106.621 C 87.516 108.141,87.341 121.799,88.508 122.453 C 88.871 122.656,89.292 123.492,89.445 124.311 C 89.597 125.130,90.054 126.035,90.461 126.323 C 90.867 126.610,91.200 127.291,91.200 127.835 C 91.200 128.380,91.484 128.934,91.831 129.067 C 92.177 129.200,92.623 129.735,92.821 130.255 C 93.018 130.775,93.455 131.200,93.790 131.200 C 94.126 131.200,94.400 131.487,94.400 131.837 C 94.400 132.188,94.754 132.567,95.187 132.681 C 95.619 132.794,96.082 133.227,96.214 133.643 C 96.346 134.059,96.684 134.400,96.965 134.400 C 97.246 134.400,97.802 134.760,98.200 135.200 C 98.598 135.640,99.256 136.000,99.662 136.000 C 100.068 136.000,100.750 136.350,101.178 136.778 C 101.605 137.205,102.640 137.682,103.478 137.836 C 104.315 137.991,105.627 138.451,106.394 138.859 C 108.252 139.847,116.788 139.955,117.740 139.002 C 118.069 138.674,119.271 138.205,120.411 137.960 C 121.551 137.716,122.825 137.175,123.242 136.758 C 123.659 136.341,124.450 136.000,125.000 136.000 C 125.622 136.000,126.000 135.773,126.000 135.400 C 126.000 135.070,126.184 134.800,126.408 134.800 C 126.941 134.800,132.800 129.034,132.800 128.510 C 132.800 128.289,133.135 127.679,133.545 127.154 C 133.955 126.629,134.426 125.750,134.592 125.200 C 134.759 124.650,135.154 123.904,135.471 123.542 C 136.859 121.958,136.989 106.536,135.618 106.074 C 135.413 106.005,135.029 105.285,134.764 104.474 C 134.500 103.663,133.950 102.571,133.542 102.046 C 133.134 101.521,132.800 100.912,132.800 100.692 C 132.800 100.472,132.395 99.901,131.900 99.424 C 131.405 98.947,130.524 98.027,129.943 97.378 C 129.361 96.730,128.409 95.840,127.827 95.400 C 127.245 94.960,126.461 94.300,126.084 93.932 C 125.708 93.565,124.918 93.144,124.329 92.996 C 123.741 92.849,122.948 92.384,122.567 91.964 C 122.124 91.474,121.345 91.200,120.392 91.200 C 119.514 91.200,118.493 90.874,117.891 90.400 C 116.408 89.234,107.690 89.195,106.645 90.351 M269.227 105.251 C 269.212 105.609,268.902 106.149,268.538 106.451 C 268.174 106.753,267.628 107.593,267.325 108.317 C 267.023 109.042,266.510 109.736,266.187 109.860 C 265.864 109.984,265.600 110.420,265.600 110.829 C 265.600 111.237,265.261 111.753,264.846 111.975 C 264.431 112.197,263.969 112.868,263.819 113.465 C 263.670 114.062,263.281 114.745,262.957 114.982 C 262.337 115.436,261.619 116.566,260.626 118.651 C 260.298 119.340,259.753 120.009,259.415 120.139 C 259.077 120.269,258.800 120.623,258.800 120.925 C 258.800 121.228,258.440 121.802,258.000 122.200 C 257.560 122.598,257.200 123.157,257.200 123.441 C 257.200 123.726,256.750 124.444,256.200 125.038 C 255.650 125.631,255.200 126.333,255.200 126.596 C 255.200 126.860,254.840 127.402,254.400 127.800 C 253.960 128.198,253.600 128.765,253.600 129.059 C 253.600 129.353,253.240 129.818,252.800 130.093 C 252.360 130.368,252.000 130.838,252.000 131.138 C 252.000 131.439,251.550 132.219,251.000 132.873 C 250.450 133.527,250.000 134.309,250.000 134.611 C 250.000 134.913,249.762 135.304,249.472 135.480 C 249.181 135.656,248.256 136.925,247.415 138.300 C 246.574 139.675,245.732 140.800,245.543 140.800 C 245.354 140.800,245.200 141.008,245.200 141.262 C 245.200 141.516,244.750 142.314,244.200 143.036 C 243.650 143.757,243.200 144.537,243.200 144.770 C 243.200 145.003,242.840 145.418,242.400 145.693 C 241.960 145.968,241.600 146.481,241.600 146.834 C 241.600 147.187,241.240 147.802,240.800 148.200 C 240.360 148.598,240.000 149.168,240.000 149.466 C 240.000 149.764,239.640 150.316,239.200 150.693 C 238.760 151.070,238.400 151.537,238.400 151.731 C 238.400 151.926,237.950 152.619,237.400 153.273 C 236.850 153.927,236.400 154.711,236.400 155.017 C 236.400 155.322,236.040 155.765,235.600 156.000 C 235.160 156.235,234.800 156.754,234.800 157.152 C 234.800 157.550,234.440 158.202,234.000 158.600 C 233.560 158.998,233.200 159.565,233.200 159.859 C 233.200 160.153,232.840 160.618,232.400 160.893 C 231.960 161.168,231.600 161.574,231.599 161.796 C 231.599 162.018,230.884 163.190,230.011 164.400 C 229.138 165.610,228.158 167.185,227.832 167.900 C 227.507 168.615,227.052 169.200,226.820 169.200 C 226.589 169.200,226.400 169.461,226.400 169.779 C 226.400 170.098,225.950 170.844,225.400 171.438 C 224.850 172.031,224.400 172.733,224.400 172.996 C 224.400 173.260,224.040 173.802,223.600 174.200 C 223.160 174.598,222.800 175.165,222.800 175.459 C 222.800 175.753,222.440 176.218,222.000 176.493 C 221.560 176.768,221.200 177.238,221.200 177.538 C 221.200 177.839,220.750 178.619,220.200 179.273 C 219.650 179.927,219.200 180.718,219.200 181.031 C 219.200 181.344,218.930 181.600,218.600 181.600 C 218.270 181.600,218.000 181.846,218.000 182.146 C 218.000 183.086,216.465 184.694,215.366 184.904 C 214.365 185.096,196.000 167.494,196.000 166.344 C 196.000 166.155,195.742 166.000,195.427 166.000 C 195.112 166.000,194.740 165.640,194.600 165.200 C 194.460 164.760,194.103 164.400,193.806 164.400 C 193.510 164.400,193.200 164.201,193.119 163.958 C 192.875 163.226,176.700 147.222,175.970 146.990 C 175.490 146.838,175.220 147.067,175.042 147.776 C 174.904 148.327,174.433 148.968,173.995 149.203 C 173.558 149.437,173.200 149.948,173.200 150.339 C 173.200 150.729,172.862 151.412,172.449 151.855 C 172.036 152.299,171.579 153.036,171.434 153.494 C 171.288 153.952,170.923 154.421,170.622 154.536 C 170.322 154.651,169.954 155.300,169.805 155.976 C 169.657 156.653,169.190 157.391,168.767 157.617 C 168.345 157.843,168.000 158.354,168.000 158.752 C 168.000 159.150,167.640 159.802,167.200 160.200 C 166.760 160.598,166.400 161.250,166.400 161.648 C 166.400 162.046,166.040 162.565,165.600 162.800 C 165.160 163.035,164.800 163.582,164.800 164.014 C 164.800 164.446,164.485 165.117,164.100 165.505 C 163.715 165.894,163.179 166.704,162.909 167.305 C 162.638 167.907,162.248 168.400,162.040 168.400 C 161.833 168.400,161.545 168.941,161.399 169.603 C 161.254 170.265,160.790 170.991,160.367 171.217 C 159.945 171.443,159.600 171.960,159.600 172.365 C 159.600 172.770,159.320 173.335,158.977 173.619 C 158.634 173.904,158.103 174.736,157.797 175.468 C 157.491 176.201,157.066 176.800,156.852 176.800 C 156.638 176.800,156.343 177.349,156.196 178.019 C 156.049 178.690,155.584 179.453,155.164 179.715 C 154.744 179.978,154.400 180.481,154.400 180.834 C 154.400 181.187,154.040 181.802,153.600 182.200 C 153.160 182.598,152.800 183.166,152.800 183.462 C 152.800 183.758,152.477 184.323,152.083 184.717 C 151.688 185.112,151.127 186.012,150.834 186.717 C 150.542 187.423,150.157 188.000,149.978 188.000 C 149.800 188.000,149.529 188.405,149.377 188.900 C 149.225 189.395,148.763 190.122,148.350 190.516 C 147.938 190.909,147.600 191.583,147.600 192.012 C 147.600 192.442,147.240 193.018,146.800 193.293 C 146.360 193.568,146.000 194.075,146.000 194.421 C 146.000 194.766,145.684 195.398,145.297 195.825 C 144.911 196.251,144.374 197.095,144.106 197.700 C 143.837 198.305,143.448 198.800,143.240 198.800 C 143.033 198.800,142.749 199.321,142.609 199.959 C 142.469 200.596,142.005 201.434,141.577 201.821 C 141.150 202.207,140.800 202.765,140.800 203.059 C 140.800 203.353,140.440 203.818,140.000 204.093 C 139.560 204.368,139.200 204.909,139.200 205.296 C 139.200 205.683,138.854 206.346,138.430 206.770 C 138.007 207.193,137.461 207.913,137.216 208.370 C 136.107 210.442,135.365 209.807,113.287 187.891 L 106.775 181.426 105.787 182.575 C 105.244 183.207,104.800 184.032,104.800 184.408 C 104.800 184.784,104.440 185.550,104.000 186.109 C 103.560 186.669,103.200 187.389,103.200 187.709 C 103.200 188.030,102.867 188.721,102.461 189.246 C 102.055 189.771,101.609 190.662,101.472 191.226 C 101.334 191.791,100.857 192.673,100.411 193.187 C 99.965 193.702,99.600 194.431,99.600 194.807 C 99.600 195.184,99.240 195.950,98.800 196.509 C 98.360 197.069,98.000 197.813,98.000 198.163 C 98.000 198.513,97.640 199.160,97.200 199.600 C 96.760 200.040,96.400 200.736,96.400 201.146 C 96.400 201.556,96.067 202.321,95.661 202.846 C 95.255 203.371,94.809 204.262,94.672 204.826 C 94.534 205.391,94.057 206.273,93.611 206.787 C 93.165 207.302,92.800 208.027,92.800 208.400 C 92.800 208.773,92.440 209.493,92.000 210.000 C 91.560 210.507,91.200 211.231,91.200 211.607 C 91.200 211.984,90.840 212.750,90.400 213.309 C 89.960 213.869,89.600 214.589,89.600 214.909 C 89.600 215.230,89.267 215.921,88.861 216.446 C 88.455 216.971,88.009 217.862,87.872 218.426 C 87.734 218.991,87.257 219.873,86.811 220.387 C 86.365 220.902,86.000 221.631,86.000 222.007 C 86.000 222.384,85.640 223.150,85.200 223.709 C 84.760 224.269,84.400 224.989,84.400 225.309 C 84.400 225.630,84.065 226.321,83.655 226.846 C 83.245 227.371,82.771 228.250,82.600 228.800 C 82.429 229.350,81.955 230.229,81.545 230.754 C 81.135 231.279,80.800 232.019,80.800 232.400 C 80.800 232.781,80.440 233.550,80.000 234.109 C 79.560 234.669,79.200 235.413,79.200 235.763 C 79.200 236.113,78.840 236.760,78.400 237.200 C 77.960 237.640,77.600 238.336,77.600 238.746 C 77.600 239.156,77.240 239.950,76.800 240.509 C 76.360 241.069,76.000 241.723,76.000 241.963 C 76.000 242.436,323.348 242.625,324.577 242.153 C 324.990 241.995,325.092 241.744,324.862 241.453 C 324.665 241.204,324.386 240.343,324.242 239.540 C 324.097 238.737,323.718 237.864,323.400 237.600 C 323.082 237.336,322.700 236.463,322.553 235.660 C 322.405 234.857,321.950 233.771,321.542 233.246 C 321.134 232.721,320.800 231.776,320.800 231.146 C 320.800 230.516,320.440 229.640,320.000 229.200 C 319.560 228.760,319.200 227.884,319.200 227.254 C 319.200 226.624,318.863 225.679,318.451 225.154 C 318.039 224.629,317.576 223.449,317.421 222.531 C 317.267 221.614,316.894 220.768,316.592 220.652 C 316.291 220.537,315.919 219.758,315.767 218.921 C 315.614 218.084,315.154 216.922,314.745 216.338 C 314.335 215.754,314.000 214.747,314.000 214.100 C 314.000 213.453,313.662 212.618,313.250 212.245 C 312.837 211.871,312.395 210.921,312.267 210.133 C 312.139 209.345,311.749 208.385,311.400 208.000 C 311.051 207.615,310.655 206.619,310.520 205.787 C 310.385 204.955,309.943 203.943,309.538 203.538 C 309.132 203.132,308.800 202.260,308.800 201.600 C 308.800 200.933,308.444 200.044,308.000 199.600 C 307.560 199.160,307.200 198.284,307.200 197.654 C 307.200 197.024,306.840 196.050,306.400 195.491 C 305.960 194.931,305.600 194.031,305.600 193.491 C 305.600 192.950,305.255 192.069,304.833 191.533 C 304.411 190.996,303.941 189.847,303.788 188.979 C 303.636 188.110,303.253 187.194,302.937 186.943 C 302.622 186.691,302.254 185.791,302.121 184.943 C 301.987 184.094,301.545 182.971,301.139 182.446 C 300.732 181.921,300.400 180.983,300.400 180.362 C 300.400 179.740,300.066 178.909,299.657 178.516 C 299.248 178.122,298.804 177.090,298.669 176.223 C 298.535 175.356,298.160 174.498,297.836 174.316 C 297.512 174.135,297.122 173.156,296.970 172.140 C 296.818 171.124,296.357 169.957,295.947 169.547 C 295.536 169.136,295.200 168.333,295.200 167.763 C 295.200 167.193,294.860 166.294,294.445 165.767 C 294.030 165.239,293.565 164.140,293.412 163.325 C 293.259 162.510,292.789 161.404,292.367 160.867 C 291.945 160.331,291.600 159.441,291.600 158.890 C 291.600 158.339,291.312 157.677,290.959 157.420 C 290.599 157.156,290.226 156.124,290.106 155.061 C 289.961 153.776,289.654 153.043,289.146 152.771 C 288.641 152.501,288.400 151.930,288.400 151.002 C 288.400 150.189,288.097 149.340,287.657 148.916 C 287.248 148.522,286.806 147.503,286.674 146.650 C 286.542 145.798,286.159 144.796,285.822 144.424 C 285.485 144.052,285.089 143.129,284.943 142.374 C 284.796 141.618,284.344 140.571,283.938 140.046 C 283.532 139.521,283.200 138.514,283.200 137.808 C 283.200 137.032,282.884 136.238,282.400 135.800 C 281.908 135.355,281.600 134.568,281.600 133.758 C 281.600 132.977,281.345 132.297,280.973 132.089 C 280.628 131.896,280.168 130.945,279.950 129.975 C 279.732 129.005,279.286 127.916,278.960 127.556 C 278.633 127.195,278.256 126.202,278.122 125.350 C 277.988 124.497,277.643 123.660,277.355 123.489 C 277.068 123.318,276.710 122.508,276.561 121.689 C 276.411 120.870,275.970 119.744,275.579 119.186 C 275.188 118.629,274.744 117.510,274.593 116.701 C 274.441 115.891,274.070 115.024,273.769 114.774 C 273.468 114.524,273.100 113.663,272.953 112.860 C 272.805 112.057,272.350 110.971,271.942 110.446 C 271.512 109.893,271.200 108.842,271.200 107.946 C 271.200 106.916,271.020 106.400,270.661 106.400 C 270.365 106.400,269.927 105.995,269.688 105.500 C 269.377 104.855,269.246 104.785,269.227 105.251 " stroke="none" fill="#473F3E" fill-rule="evenodd"></path><path id="path3" d="M399.103 199.477 C 399.175 339.218,399.079 399.081,398.783 399.377 C 398.487 399.673,338.300 399.861,199.080 400.001 L -0.200 400.202 199.200 400.288 C 364.482 400.360,398.720 400.284,399.300 399.843 C 400.213 399.150,400.413 0.000,399.500 -0.000 C 399.101 -0.000,399.021 40.107,399.103 199.477 M34.411 36.380 C 33.907 37.322,34.019 277.120,34.524 277.900 C 35.000 278.636,363.400 278.636,363.876 277.900 C 364.381 277.121,364.492 37.319,363.989 36.379 C 363.331 35.150,35.069 35.151,34.411 36.380 M363.400 157.000 L 363.400 277.800 199.200 277.800 L 35.000 277.800 34.898 157.400 C 34.841 91.180,34.881 36.775,34.985 36.500 C 35.137 36.100,68.207 36.019,199.288 36.100 L 363.400 36.200 363.400 157.000 M108.400 88.413 C 106.079 88.593,104.494 88.950,103.406 89.539 C 102.529 90.012,101.522 90.400,101.167 90.400 C 100.813 90.400,100.107 90.760,99.600 91.200 C 99.093 91.640,98.519 92.000,98.324 92.000 C 97.906 92.000,92.801 96.039,92.798 96.372 C 92.797 96.497,92.167 97.285,91.398 98.122 C 90.629 98.960,90.000 99.885,90.000 100.179 C 90.000 100.474,89.753 100.809,89.451 100.925 C 89.150 101.041,88.776 101.645,88.620 102.268 C 88.465 102.890,88.083 103.683,87.772 104.028 C 87.461 104.373,87.025 105.615,86.802 106.788 C 86.580 107.961,86.173 109.191,85.899 109.522 C 85.103 110.480,85.277 118.682,86.125 120.200 C 86.493 120.860,86.796 121.961,86.798 122.646 C 86.799 123.331,87.149 124.336,87.575 124.878 C 88.002 125.420,88.475 126.358,88.627 126.964 C 88.779 127.569,89.150 128.159,89.451 128.275 C 89.753 128.391,90.000 128.718,90.000 129.002 C 90.000 129.899,93.991 134.305,96.160 135.800 C 98.673 137.533,99.438 138.008,100.400 138.430 C 100.950 138.671,102.203 139.258,103.184 139.734 C 105.630 140.921,119.005 141.055,121.000 139.913 C 121.660 139.534,122.830 138.945,123.600 138.602 C 127.420 136.901,133.158 132.024,133.830 129.906 C 133.953 129.518,134.200 129.200,134.378 129.200 C 134.557 129.200,134.938 128.615,135.224 127.900 C 135.511 127.185,136.073 126.171,136.473 125.646 C 136.873 125.121,137.201 124.311,137.202 123.846 C 137.204 123.381,137.518 122.460,137.900 121.800 C 138.935 120.014,138.935 108.854,137.900 107.710 C 137.515 107.285,137.197 106.501,137.194 105.969 C 137.191 105.436,136.929 104.550,136.611 104.000 C 136.294 103.450,135.865 102.631,135.657 102.180 C 134.067 98.720,127.756 92.000,126.096 92.000 C 125.883 92.000,125.264 91.651,124.722 91.225 C 124.180 90.798,123.211 90.320,122.568 90.162 C 121.926 90.003,121.018 89.626,120.551 89.324 C 119.210 88.457,113.424 88.023,108.400 88.413 M119.726 89.632 C 129.550 93.570,134.240 98.442,137.406 108.000 C 138.282 110.644,138.631 116.383,138.050 118.600 C 137.819 119.480,137.398 121.119,137.115 122.241 C 136.832 123.364,136.394 124.534,136.142 124.841 C 135.890 125.149,135.419 126.030,135.097 126.800 C 133.777 129.950,127.331 136.800,125.688 136.800 C 125.479 136.800,124.864 137.149,124.322 137.575 C 123.780 138.002,122.811 138.473,122.168 138.623 C 121.526 138.773,120.550 139.189,120.000 139.548 C 118.469 140.546,105.835 140.508,104.411 139.500 C 103.867 139.115,103.147 138.799,102.811 138.798 C 102.475 138.796,101.705 138.526,101.100 138.198 C 100.495 137.869,99.589 137.375,99.087 137.100 C 91.870 133.148,86.026 123.088,86.004 114.580 C 85.979 104.796,93.950 93.311,102.800 90.376 C 103.350 90.194,104.520 89.773,105.400 89.440 C 108.023 88.448,117.076 88.569,119.726 89.632 M267.908 104.052 C 267.409 104.961,266.765 106.131,266.478 106.652 C 266.191 107.174,265.808 107.600,265.627 107.600 C 265.445 107.600,265.060 108.185,264.771 108.900 C 264.482 109.615,264.095 110.304,263.912 110.430 C 263.728 110.557,262.961 111.637,262.206 112.830 C 261.452 114.024,260.671 115.191,260.471 115.425 C 260.272 115.659,259.890 116.258,259.624 116.755 C 259.357 117.253,258.793 118.007,258.370 118.430 C 257.946 118.854,257.600 119.442,257.600 119.738 C 257.600 120.034,257.240 120.602,256.800 121.000 C 256.360 121.398,256.000 121.906,256.000 122.128 C 256.000 122.351,255.726 122.818,255.390 123.166 C 254.545 124.044,252.800 126.759,252.800 127.195 C 252.800 127.393,252.473 127.790,252.074 128.077 C 251.674 128.365,251.246 128.870,251.122 129.200 C 250.892 129.815,247.533 135.014,246.803 135.885 C 246.579 136.152,246.188 136.827,245.934 137.385 C 245.680 137.943,245.323 138.400,245.141 138.400 C 244.959 138.400,244.566 138.985,244.267 139.700 C 243.968 140.415,243.426 141.247,243.062 141.549 C 242.698 141.851,242.400 142.275,242.400 142.491 C 242.400 142.708,241.950 143.419,241.400 144.073 C 240.850 144.727,240.400 145.518,240.400 145.831 C 240.400 146.144,240.243 146.400,240.051 146.400 C 239.859 146.400,239.094 147.398,238.351 148.618 C 237.608 149.838,236.690 151.209,236.312 151.665 C 235.933 152.122,235.522 152.817,235.397 153.211 C 235.272 153.604,234.906 154.027,234.585 154.150 C 234.263 154.274,234.000 154.606,233.999 154.887 C 233.999 155.169,233.279 156.390,232.399 157.600 C 231.519 158.810,230.607 160.281,230.372 160.868 C 230.137 161.455,229.687 162.035,229.372 162.155 C 229.057 162.276,228.800 162.629,228.800 162.938 C 228.800 163.248,228.502 163.749,228.138 164.051 C 227.774 164.353,227.232 165.185,226.933 165.900 C 226.634 166.615,226.212 167.200,225.995 167.200 C 225.778 167.200,225.600 167.457,225.600 167.771 C 225.600 168.086,225.366 168.581,225.079 168.871 C 224.575 169.383,219.445 176.919,218.564 178.441 C 218.325 178.856,217.851 179.511,217.512 179.897 C 217.172 180.284,216.777 180.986,216.634 181.457 C 215.883 183.926,215.566 183.657,195.815 163.779 C 174.561 142.389,175.608 143.188,173.442 146.715 C 172.805 147.752,171.997 149.050,171.647 149.600 C 170.523 151.364,170.218 151.861,169.286 153.446 C 168.784 154.301,167.843 155.810,167.194 156.800 C 166.546 157.790,165.835 159.010,165.614 159.510 C 165.393 160.011,164.849 160.810,164.406 161.286 C 163.963 161.762,163.600 162.477,163.600 162.875 C 163.600 163.274,163.447 163.600,163.260 163.600 C 162.904 163.600,160.400 167.422,160.400 167.965 C 160.400 168.136,160.050 168.593,159.623 168.979 C 159.195 169.366,158.731 170.204,158.591 170.841 C 158.451 171.479,158.162 172.000,157.948 172.000 C 157.734 172.000,157.309 172.599,157.003 173.332 C 156.697 174.064,156.166 174.896,155.823 175.181 C 155.480 175.465,155.200 175.909,155.200 176.168 C 155.200 176.426,154.930 176.989,154.600 177.419 C 153.389 178.995,152.073 181.140,151.813 181.959 C 151.666 182.421,151.381 182.800,151.178 182.800 C 150.976 182.800,150.538 183.385,150.204 184.100 C 149.871 184.815,149.061 186.210,148.405 187.200 C 147.749 188.190,146.995 189.450,146.729 190.000 C 146.463 190.550,145.981 191.316,145.658 191.703 C 144.958 192.541,144.234 193.755,143.434 195.432 C 143.111 196.109,142.566 196.896,142.223 197.181 C 141.880 197.465,141.600 197.933,141.600 198.220 C 141.600 198.508,141.298 199.045,140.928 199.415 C 140.232 200.110,139.299 201.654,138.216 203.900 C 137.871 204.615,137.441 205.200,137.259 205.200 C 137.077 205.200,136.729 205.638,136.485 206.172 C 135.977 207.289,134.209 206.851,133.772 205.500 C 133.648 205.115,133.399 204.800,133.219 204.800 C 133.039 204.800,127.093 199.040,120.006 192.000 C 112.919 184.960,106.902 179.200,106.635 179.200 C 105.948 179.200,104.000 181.320,104.000 182.068 C 104.000 182.411,103.651 183.136,103.225 183.678 C 102.798 184.220,102.319 185.189,102.159 185.832 C 101.998 186.474,101.647 187.180,101.378 187.400 C 101.109 187.620,100.674 188.475,100.413 189.300 C 100.152 190.125,99.800 190.800,99.632 190.800 C 99.464 190.800,99.117 191.499,98.861 192.353 C 98.606 193.206,98.127 194.128,97.798 194.402 C 97.469 194.675,97.200 195.212,97.200 195.595 C 97.200 195.978,96.840 196.750,96.400 197.309 C 95.960 197.869,95.600 198.589,95.600 198.909 C 95.600 199.230,95.240 199.950,94.800 200.509 C 94.360 201.069,93.999 201.678,93.999 201.863 C 93.997 202.267,91.405 207.463,90.872 208.131 C 90.666 208.389,90.365 209.050,90.202 209.600 C 90.039 210.150,89.678 210.870,89.400 211.200 C 89.122 211.530,88.759 212.250,88.592 212.800 C 88.426 213.350,87.955 214.229,87.545 214.754 C 87.135 215.279,86.800 216.019,86.800 216.400 C 86.800 216.781,86.440 217.550,86.000 218.109 C 85.560 218.669,85.200 219.389,85.200 219.709 C 85.200 220.030,84.851 220.736,84.425 221.278 C 83.998 221.820,83.519 222.789,83.359 223.432 C 83.198 224.074,82.847 224.780,82.578 225.000 C 82.309 225.220,81.874 226.075,81.613 226.900 C 81.352 227.725,81.000 228.400,80.832 228.400 C 80.664 228.400,80.317 229.099,80.061 229.953 C 79.806 230.806,79.327 231.728,78.998 232.002 C 78.669 232.275,78.400 232.812,78.400 233.195 C 78.400 233.578,78.040 234.350,77.600 234.909 C 77.160 235.469,76.800 236.189,76.800 236.509 C 76.800 236.830,76.474 237.521,76.075 238.046 C 74.851 239.658,73.595 243.435,74.112 243.952 C 74.823 244.663,326.148 244.586,326.738 243.875 C 327.277 243.225,326.896 240.437,326.151 239.574 C 325.853 239.229,325.489 238.329,325.343 237.574 C 325.196 236.818,324.744 235.771,324.338 235.246 C 323.932 234.721,323.598 234.001,323.596 233.646 C 323.594 233.291,323.150 232.100,322.609 231.000 C 322.068 229.900,321.619 228.617,321.613 228.149 C 321.606 227.681,321.350 227.090,321.044 226.837 C 320.739 226.583,320.275 225.526,320.014 224.488 C 319.753 223.450,319.306 222.330,319.021 222.000 C 318.735 221.670,318.384 220.743,318.240 219.940 C 318.096 219.137,317.728 218.272,317.421 218.017 C 317.114 217.762,316.744 216.855,316.600 216.000 C 316.456 215.145,316.096 214.245,315.800 214.000 C 315.504 213.755,315.142 212.841,314.995 211.969 C 314.847 211.097,314.478 210.135,314.174 209.832 C 313.870 209.528,313.453 208.528,313.247 207.611 C 313.041 206.693,312.609 205.641,312.287 205.271 C 311.965 204.902,311.584 203.943,311.440 203.140 C 311.296 202.337,310.936 201.479,310.639 201.233 C 310.343 200.986,309.989 200.092,309.853 199.244 C 309.718 198.397,309.354 197.494,309.045 197.238 C 308.736 196.981,308.364 196.135,308.218 195.357 C 308.072 194.578,307.604 193.370,307.178 192.671 C 306.752 191.972,306.397 191.130,306.389 190.800 C 306.381 190.470,305.932 189.300,305.391 188.200 C 304.850 187.100,304.406 185.907,304.404 185.549 C 304.402 185.191,304.149 184.690,303.842 184.435 C 303.535 184.180,303.160 183.303,303.008 182.486 C 302.857 181.669,302.388 180.439,301.966 179.753 C 301.545 179.067,301.200 178.146,301.200 177.707 C 301.200 177.267,300.866 176.479,300.458 175.954 C 300.050 175.429,299.595 174.343,299.447 173.540 C 299.300 172.737,298.936 171.879,298.639 171.633 C 298.343 171.386,297.987 170.481,297.850 169.621 C 297.712 168.761,297.352 167.809,297.049 167.506 C 296.746 167.203,296.366 166.335,296.206 165.577 C 296.045 164.820,295.573 163.639,295.157 162.953 C 294.741 162.267,294.399 161.367,294.397 160.953 C 294.396 160.539,294.037 159.660,293.600 159.000 C 293.163 158.340,292.803 157.440,292.800 157.000 C 292.797 156.560,292.437 155.660,292.000 155.000 C 291.563 154.340,291.204 153.523,291.203 153.185 C 291.201 152.846,290.840 151.863,290.400 151.000 C 289.960 150.137,289.598 149.244,289.596 149.015 C 289.594 148.787,289.150 147.700,288.609 146.600 C 288.068 145.500,287.618 144.330,287.610 144.000 C 287.602 143.670,287.237 142.860,286.800 142.200 C 286.363 141.540,286.002 140.730,285.999 140.400 C 285.996 140.070,285.550 138.900,285.009 137.800 C 284.468 136.700,284.018 135.530,284.010 135.200 C 284.002 134.870,283.637 134.060,283.200 133.400 C 282.763 132.740,282.404 131.861,282.403 131.447 C 282.401 131.033,282.062 130.133,281.649 129.447 C 281.235 128.761,280.781 127.543,280.638 126.740 C 280.495 125.937,280.128 125.072,279.821 124.817 C 279.514 124.562,279.144 123.655,279.000 122.800 C 278.856 121.945,278.486 121.038,278.179 120.783 C 277.872 120.528,277.500 119.663,277.353 118.860 C 277.205 118.057,276.750 116.971,276.342 116.446 C 275.934 115.921,275.600 114.989,275.600 114.375 C 275.600 113.760,275.344 113.001,275.032 112.689 C 274.719 112.376,274.273 111.418,274.042 110.560 C 273.810 109.702,273.373 108.640,273.071 108.200 C 272.769 107.760,272.401 106.777,272.254 106.014 C 271.615 102.713,269.235 101.638,267.908 104.052 M271.840 106.600 C 272.206 107.700,272.639 108.780,272.801 109.000 C 272.963 109.220,273.325 110.120,273.605 111.000 C 273.885 111.880,274.358 112.955,274.657 113.389 C 274.956 113.823,275.202 114.453,275.204 114.789 C 275.206 115.125,275.650 116.300,276.191 117.400 C 276.732 118.500,277.181 119.626,277.187 119.901 C 277.194 120.177,277.560 121.075,278.000 121.896 C 278.440 122.716,278.801 123.661,278.803 123.994 C 278.804 124.327,279.163 125.140,279.600 125.800 C 280.037 126.460,280.397 127.270,280.400 127.600 C 280.403 127.930,280.692 128.740,281.043 129.400 C 281.394 130.060,281.938 131.447,282.251 132.483 C 282.564 133.518,282.996 134.474,283.210 134.606 C 283.425 134.739,283.600 135.140,283.600 135.497 C 283.600 135.855,283.950 136.879,284.377 137.774 C 284.804 138.668,285.415 140.120,285.735 141.000 C 286.055 141.880,286.695 143.545,287.158 144.700 C 287.621 145.855,288.342 147.655,288.759 148.700 C 289.177 149.745,290.005 151.770,290.600 153.200 C 292.351 157.412,293.254 159.678,293.997 161.728 C 294.382 162.788,294.899 163.859,295.148 164.108 C 295.397 164.357,295.602 164.839,295.604 165.180 C 295.606 165.521,296.050 166.700,296.591 167.800 C 297.132 168.900,297.581 170.073,297.587 170.406 C 297.594 170.739,297.960 171.684,298.400 172.504 C 298.840 173.325,299.200 174.225,299.200 174.504 C 299.200 174.784,299.560 175.684,300.000 176.504 C 300.440 177.325,300.806 178.223,300.813 178.499 C 300.819 178.774,301.268 179.900,301.809 181.000 C 302.350 182.100,302.794 183.279,302.796 183.620 C 302.798 183.961,302.961 184.411,303.157 184.620 C 303.582 185.072,305.483 189.619,306.074 191.598 C 306.304 192.367,306.741 193.352,307.046 193.787 C 307.351 194.222,307.600 194.803,307.600 195.077 C 307.600 195.352,308.029 196.527,308.553 197.688 C 309.077 198.850,309.641 200.250,309.807 200.800 C 309.972 201.350,310.354 202.155,310.654 202.589 C 310.954 203.023,311.206 203.653,311.213 203.989 C 311.219 204.325,311.668 205.500,312.209 206.600 C 312.750 207.700,313.194 208.826,313.196 209.101 C 313.198 209.377,313.560 210.275,314.000 211.096 C 314.440 211.916,314.800 212.816,314.800 213.096 C 314.800 213.375,315.160 214.275,315.600 215.096 C 316.040 215.916,316.401 216.861,316.403 217.194 C 316.404 217.527,316.763 218.340,317.200 219.000 C 317.637 219.660,317.996 220.473,317.997 220.806 C 317.999 221.139,318.360 222.084,318.800 222.904 C 319.240 223.725,319.600 224.625,319.600 224.904 C 319.600 225.184,319.960 226.084,320.400 226.904 C 320.840 227.725,321.202 228.623,321.204 228.899 C 321.206 229.174,321.650 230.300,322.191 231.400 C 322.732 232.500,323.181 233.675,323.187 234.011 C 323.194 234.347,323.444 234.977,323.742 235.411 C 324.041 235.845,324.594 237.143,324.973 238.295 C 325.351 239.448,325.827 240.493,326.031 240.619 C 326.450 240.878,326.521 242.420,326.157 243.367 C 325.837 244.203,76.115 244.355,75.280 243.520 C 74.473 242.713,76.291 237.776,79.228 232.800 C 80.168 231.208,82.400 226.463,82.400 226.058 C 82.400 225.806,82.566 225.600,82.769 225.600 C 82.972 225.600,83.355 224.925,83.620 224.100 C 83.884 223.275,84.327 222.330,84.603 222.000 C 84.879 221.670,85.241 220.950,85.408 220.400 C 85.574 219.850,86.045 218.971,86.455 218.446 C 86.865 217.921,87.200 217.230,87.200 216.909 C 87.200 216.589,87.560 215.869,88.000 215.309 C 88.440 214.750,88.800 213.967,88.800 213.570 C 88.800 213.172,88.957 212.750,89.150 212.631 C 89.342 212.512,91.337 208.677,93.584 204.108 C 95.831 199.538,97.830 195.530,98.026 195.200 C 98.949 193.646,101.200 188.866,101.200 188.458 C 101.200 188.206,101.366 188.000,101.569 188.000 C 101.772 188.000,102.155 187.325,102.420 186.500 C 102.684 185.675,103.134 184.730,103.419 184.400 C 103.704 184.070,104.061 183.304,104.212 182.699 C 104.364 182.093,105.012 181.156,105.653 180.617 L 106.819 179.635 115.362 188.118 C 128.528 201.190,135.565 208.001,135.897 207.992 C 136.064 207.988,136.740 207.080,137.400 205.973 C 138.060 204.867,138.920 203.577,139.311 203.107 C 139.702 202.637,140.126 201.836,140.254 201.326 C 140.382 200.817,140.653 200.400,140.856 200.400 C 141.059 200.400,141.341 200.085,141.483 199.700 C 141.729 199.034,144.447 194.643,146.060 192.306 C 146.475 191.704,146.996 190.804,147.216 190.306 C 147.436 189.808,148.146 188.590,148.794 187.600 C 149.443 186.610,150.344 185.170,150.798 184.400 C 151.251 183.630,151.972 182.460,152.399 181.800 C 152.826 181.140,153.474 180.069,153.840 179.420 C 154.205 178.770,154.750 177.992,155.052 177.691 C 155.353 177.390,155.600 176.984,155.600 176.789 C 155.600 176.481,157.002 174.166,157.895 173.000 C 158.063 172.780,159.174 170.980,160.362 169.000 C 161.551 167.020,163.306 164.191,164.262 162.713 C 165.218 161.235,166.000 159.868,166.000 159.675 C 166.000 159.482,166.360 158.998,166.800 158.600 C 167.240 158.202,167.600 157.679,167.601 157.438 C 167.601 157.197,168.279 156.010,169.108 154.800 C 169.936 153.590,170.839 152.150,171.113 151.600 C 171.388 151.050,172.146 149.790,172.798 148.800 C 173.450 147.810,174.163 146.595,174.382 146.100 C 175.318 143.985,175.924 144.505,195.473 164.193 C 208.006 176.815,214.619 183.200,215.157 183.200 C 216.261 183.200,215.827 183.781,224.088 171.244 C 224.466 170.670,225.076 169.660,225.442 169.000 C 225.809 168.340,226.354 167.656,226.654 167.480 C 226.954 167.304,227.200 166.977,227.200 166.753 C 227.200 166.530,227.605 165.774,228.101 165.073 C 228.597 164.373,229.182 163.512,229.401 163.160 C 229.620 162.808,230.336 161.728,230.992 160.760 C 231.647 159.792,232.367 158.706,232.592 158.346 C 233.335 157.156,239.269 148.238,240.747 146.089 C 241.546 144.928,242.470 143.562,242.800 143.053 C 243.130 142.544,243.936 141.334,244.592 140.364 C 245.247 139.394,245.967 138.307,246.192 137.949 C 246.416 137.590,247.481 135.970,248.557 134.349 C 249.633 132.727,252.419 128.520,254.748 125.000 C 257.076 121.480,259.076 118.510,259.192 118.400 C 259.308 118.290,259.870 117.480,260.442 116.600 C 261.014 115.720,263.231 112.346,265.368 109.102 L 269.255 103.204 270.215 103.902 C 270.742 104.286,271.474 105.500,271.840 106.600 " stroke="none" fill="#e4e4e4" fill-rule="evenodd"></path><path id="path4" d="M0.000 1.000 L 0.000 2.000 198.800 2.000 L 397.600 2.000 397.600 200.600 L 397.600 399.199 198.700 399.300 L -0.200 399.401 199.000 399.401 L 398.200 399.400 398.317 201.800 C 398.381 93.120,398.323 3.255,398.188 2.100 L 397.942 0.000 198.971 0.000 L 0.000 0.000 0.000 1.000 M34.228 34.229 C 33.658 34.799,33.608 46.350,33.699 156.929 L 33.800 279.000 199.086 279.100 L 364.371 279.201 364.886 278.300 C 365.301 277.573,365.422 254.319,365.516 157.600 C 365.637 33.134,365.664 35.422,364.056 34.100 C 363.021 33.250,35.079 33.379,34.228 34.229 M364.051 35.461 C 364.919 36.507,364.868 277.860,364.000 278.408 C 363.039 279.016,35.088 278.928,34.480 278.320 C 33.781 277.621,33.781 35.979,34.480 35.280 C 35.340 34.420,363.336 34.600,364.051 35.461 M105.206 90.023 C 104.440 90.450,103.558 90.800,103.246 90.800 C 101.067 90.800,95.824 94.685,91.638 99.400 C 86.819 104.829,85.309 117.769,88.698 124.600 C 91.037 129.316,90.952 129.190,93.861 132.200 C 96.924 135.368,101.392 138.400,102.997 138.400 C 103.281 138.400,104.297 138.756,105.256 139.191 C 110.147 141.410,123.842 139.127,126.800 135.600 C 126.910 135.469,127.594 134.947,128.320 134.439 C 129.422 133.669,130.710 132.239,133.988 128.141 C 134.190 127.888,134.632 127.078,134.969 126.341 C 135.307 125.603,135.752 124.730,135.957 124.400 C 137.486 121.942,138.419 113.289,137.451 110.545 C 137.149 109.689,136.770 108.182,136.608 107.195 C 136.446 106.208,136.084 105.130,135.804 104.800 C 135.524 104.470,135.165 103.776,135.007 103.259 C 134.709 102.282,133.776 100.810,131.915 98.381 C 129.901 95.751,123.042 90.800,121.413 90.800 C 121.058 90.800,120.062 90.440,119.200 90.000 C 116.920 88.837,107.306 88.852,105.206 90.023 M117.891 90.400 C 118.493 90.874,119.514 91.200,120.392 91.200 C 121.345 91.200,122.124 91.474,122.567 91.964 C 122.948 92.384,123.741 92.849,124.329 92.996 C 124.918 93.144,125.708 93.565,126.084 93.932 C 126.461 94.300,127.245 94.960,127.827 95.400 C 128.409 95.840,129.361 96.730,129.943 97.378 C 130.524 98.027,131.405 98.947,131.900 99.424 C 132.395 99.901,132.800 100.472,132.800 100.692 C 132.800 100.912,133.134 101.521,133.542 102.046 C 133.950 102.571,134.500 103.663,134.764 104.474 C 135.029 105.285,135.413 106.005,135.618 106.074 C 136.989 106.536,136.859 121.958,135.471 123.542 C 135.154 123.904,134.759 124.650,134.592 125.200 C 134.426 125.750,133.955 126.629,133.545 127.154 C 133.135 127.679,132.800 128.289,132.800 128.510 C 132.800 129.034,126.941 134.800,126.408 134.800 C 126.184 134.800,126.000 135.070,126.000 135.400 C 126.000 135.773,125.622 136.000,125.000 136.000 C 124.450 136.000,123.659 136.341,123.242 136.758 C 122.825 137.175,121.551 137.716,120.411 137.960 C 119.271 138.205,118.069 138.674,117.740 139.002 C 116.788 139.955,108.252 139.847,106.394 138.859 C 105.627 138.451,104.315 137.991,103.478 137.836 C 102.640 137.682,101.605 137.205,101.178 136.778 C 100.750 136.350,100.068 136.000,99.662 136.000 C 99.256 136.000,98.598 135.640,98.200 135.200 C 97.802 134.760,97.246 134.400,96.965 134.400 C 96.684 134.400,96.346 134.059,96.214 133.643 C 96.082 133.227,95.619 132.794,95.187 132.681 C 94.754 132.567,94.400 132.188,94.400 131.837 C 94.400 131.487,94.126 131.200,93.790 131.200 C 93.455 131.200,93.018 130.775,92.821 130.255 C 92.623 129.735,92.177 129.200,91.831 129.067 C 91.484 128.934,91.200 128.380,91.200 127.835 C 91.200 127.291,90.867 126.610,90.461 126.323 C 90.054 126.035,89.597 125.130,89.445 124.311 C 89.292 123.492,88.871 122.656,88.508 122.453 C 87.341 121.799,87.516 108.141,88.712 106.621 C 89.200 106.000,89.600 105.020,89.600 104.442 C 89.600 103.826,89.930 103.186,90.400 102.893 C 90.840 102.618,91.200 102.061,91.200 101.655 C 91.200 101.249,91.650 100.431,92.200 99.838 C 92.750 99.244,93.200 98.588,93.200 98.379 C 93.200 98.171,93.470 98.000,93.800 98.000 C 94.130 98.000,94.400 97.726,94.400 97.390 C 94.400 97.055,94.850 96.609,95.400 96.400 C 95.950 96.191,96.400 95.785,96.400 95.498 C 96.400 95.210,96.895 94.749,97.500 94.473 C 99.483 93.567,101.324 92.446,101.622 91.964 C 101.783 91.704,102.826 91.403,103.940 91.296 C 105.220 91.173,106.215 90.825,106.645 90.351 C 107.690 89.195,116.408 89.234,117.891 90.400 M268.900 104.458 C 268.625 104.734,268.400 105.194,268.400 105.480 C 268.400 105.766,268.224 106.000,268.008 106.000 C 267.793 106.000,267.208 106.744,266.708 107.654 C 265.380 110.074,265.032 110.639,264.400 111.400 C 264.087 111.777,263.644 112.406,263.416 112.799 C 263.187 113.191,261.740 115.353,260.200 117.604 C 258.660 119.855,257.220 121.986,257.000 122.338 C 255.809 124.247,249.367 134.012,247.195 137.200 C 246.970 137.530,246.133 138.835,245.335 140.100 C 244.536 141.365,243.730 142.400,243.542 142.400 C 243.354 142.400,243.200 142.604,243.200 142.854 C 243.200 143.104,241.805 145.370,240.100 147.890 C 238.395 150.410,236.813 152.796,236.585 153.191 C 235.734 154.668,233.789 157.405,233.500 157.533 C 233.335 157.607,233.200 157.821,233.200 158.011 C 233.200 158.200,231.535 160.853,229.500 163.907 C 227.465 166.961,225.279 170.301,224.642 171.330 C 224.005 172.358,223.330 173.200,223.142 173.200 C 222.954 173.200,222.800 173.456,222.800 173.769 C 222.800 174.082,222.350 174.873,221.800 175.527 C 221.250 176.181,220.800 176.855,220.800 177.026 C 220.800 177.197,220.501 177.667,220.136 178.071 C 219.770 178.475,219.275 179.139,219.036 179.546 C 217.623 181.946,216.314 183.608,215.795 183.660 C 215.468 183.693,215.020 183.738,214.801 183.760 C 214.386 183.802,209.397 178.896,188.844 158.237 C 175.532 144.856,175.539 144.862,174.531 146.975 C 174.158 147.759,173.723 148.400,173.565 148.400 C 173.407 148.400,173.079 148.895,172.836 149.500 C 172.593 150.105,171.859 151.410,171.205 152.400 C 170.551 153.390,169.829 154.560,169.600 155.000 C 169.371 155.440,168.654 156.610,168.006 157.600 C 167.357 158.590,166.456 160.030,166.002 160.800 C 165.549 161.570,164.828 162.740,164.401 163.400 C 163.974 164.060,163.328 165.127,162.965 165.771 C 162.603 166.415,161.720 167.775,161.005 168.793 C 160.289 169.812,159.585 171.016,159.441 171.470 C 159.297 171.923,158.824 172.616,158.390 173.009 C 157.955 173.402,157.600 173.901,157.600 174.117 C 157.600 174.333,156.835 175.706,155.900 177.168 C 153.462 180.981,153.305 181.234,152.304 182.954 C 150.713 185.689,150.578 185.903,150.031 186.562 C 149.442 187.272,148.376 189.115,147.445 191.032 C 147.115 191.709,146.566 192.496,146.223 192.781 C 145.880 193.065,145.600 193.518,145.600 193.787 C 145.600 194.056,145.240 194.602,144.800 195.000 C 144.360 195.398,143.999 195.921,143.998 196.162 C 143.996 196.403,143.187 197.770,142.200 199.200 C 141.213 200.630,140.404 201.997,140.402 202.238 C 140.401 202.479,140.040 203.002,139.600 203.400 C 139.160 203.798,138.800 204.331,138.800 204.583 C 138.800 205.330,136.378 208.400,135.789 208.400 C 135.491 208.400,131.111 204.305,126.056 199.300 C 121.000 194.295,114.592 187.970,111.816 185.245 L 106.768 180.290 105.818 181.183 C 105.295 181.674,104.751 182.540,104.609 183.106 C 104.467 183.673,104.002 184.580,103.575 185.122 C 103.149 185.664,102.800 186.422,102.800 186.805 C 102.800 187.188,102.539 187.718,102.220 187.983 C 101.902 188.248,101.429 189.125,101.170 189.932 C 100.911 190.739,100.473 191.670,100.197 192.000 C 99.921 192.330,99.562 193.050,99.400 193.600 C 99.238 194.150,98.878 194.870,98.600 195.200 C 98.322 195.530,97.959 196.250,97.792 196.800 C 97.626 197.350,97.155 198.229,96.745 198.754 C 96.335 199.279,96.000 200.016,96.000 200.393 C 96.000 200.769,95.640 201.493,95.200 202.000 C 94.760 202.507,94.400 203.231,94.400 203.607 C 94.400 203.984,94.051 204.736,93.625 205.278 C 93.198 205.820,92.728 206.746,92.580 207.335 C 92.432 207.925,92.184 208.487,92.027 208.583 C 91.871 208.680,90.708 210.883,89.443 213.479 C 88.178 216.076,86.975 218.470,86.770 218.800 C 86.566 219.130,86.219 219.850,85.999 220.400 C 85.780 220.950,85.419 221.670,85.197 222.000 C 84.976 222.330,84.596 223.050,84.354 223.600 C 84.112 224.150,83.759 224.870,83.568 225.200 C 82.736 226.641,80.400 231.610,80.400 231.940 C 80.400 232.139,80.148 232.511,79.839 232.767 C 79.531 233.023,79.160 233.706,79.014 234.285 C 78.869 234.863,78.402 235.780,77.975 236.322 C 77.549 236.864,77.200 237.616,77.200 237.993 C 77.200 238.369,76.831 239.103,76.381 239.622 C 75.852 240.232,75.604 240.998,75.681 241.783 L 75.800 243.000 200.712 243.101 C 310.731 243.189,325.652 243.131,325.852 242.609 C 325.977 242.283,325.701 241.236,325.240 240.282 C 324.778 239.328,324.400 238.334,324.400 238.072 C 324.400 237.811,324.040 236.925,323.600 236.104 C 323.160 235.284,322.799 234.339,322.797 234.006 C 322.796 233.673,322.437 232.860,322.000 232.200 C 321.563 231.540,321.204 230.727,321.203 230.394 C 321.201 230.061,320.853 229.140,320.428 228.348 C 320.004 227.556,319.534 226.254,319.384 225.454 C 319.234 224.654,318.958 224.000,318.771 224.000 C 318.584 224.000,318.230 223.253,317.984 222.339 C 317.738 221.426,317.191 220.034,316.768 219.245 C 316.346 218.457,316.000 217.463,316.000 217.037 C 316.000 216.611,315.748 215.979,315.440 215.631 C 315.132 215.284,314.694 214.370,314.468 213.600 C 313.895 211.651,311.988 207.079,311.557 206.620 C 311.361 206.411,311.200 205.954,311.200 205.605 C 311.200 205.255,310.844 204.271,310.409 203.417 C 309.974 202.564,309.408 201.221,309.152 200.433 C 308.896 199.645,308.442 198.645,308.143 198.211 C 307.844 197.777,307.600 197.140,307.600 196.796 C 307.600 196.451,307.242 195.466,306.804 194.607 C 306.366 193.748,305.897 192.456,305.762 191.737 C 305.627 191.017,305.277 190.230,304.984 189.987 C 304.691 189.744,304.332 188.972,304.186 188.272 C 304.041 187.573,303.684 186.624,303.393 186.164 C 303.103 185.704,302.654 184.534,302.395 183.564 C 302.137 182.594,301.695 181.530,301.413 181.200 C 301.132 180.870,300.784 179.943,300.640 179.140 C 300.496 178.337,300.128 177.472,299.821 177.217 C 299.514 176.962,299.144 176.055,299.000 175.200 C 298.856 174.345,298.486 173.438,298.179 173.183 C 297.872 172.928,297.499 172.066,297.349 171.268 C 297.199 170.470,296.745 169.273,296.340 168.608 C 295.935 167.944,295.602 167.127,295.601 166.794 C 295.601 166.461,295.240 165.516,294.800 164.696 C 294.360 163.875,294.000 162.975,294.000 162.696 C 294.000 162.416,293.666 161.561,293.259 160.794 C 292.851 160.027,292.286 158.680,292.002 157.800 C 291.718 156.920,291.242 155.845,290.943 155.411 C 290.644 154.977,290.400 154.344,290.400 154.005 C 290.400 153.666,290.040 152.716,289.600 151.896 C 289.160 151.075,288.794 150.177,288.787 149.901 C 288.781 149.626,288.332 148.500,287.791 147.400 C 287.250 146.300,286.806 145.107,286.804 144.749 C 286.802 144.391,286.535 143.878,286.211 143.609 C 285.886 143.340,285.505 142.463,285.362 141.660 C 285.219 140.857,284.765 139.639,284.351 138.953 C 283.938 138.267,283.599 137.367,283.597 136.953 C 283.596 136.539,283.237 135.660,282.800 135.000 C 282.363 134.340,281.998 133.530,281.990 133.200 C 281.982 132.870,281.532 131.700,280.991 130.600 C 280.450 129.500,280.006 128.374,280.004 128.099 C 280.002 127.823,279.640 126.925,279.200 126.104 C 278.760 125.284,278.399 124.339,278.397 124.006 C 278.396 123.673,278.037 122.860,277.600 122.200 C 277.163 121.540,276.803 120.640,276.800 120.200 C 276.797 119.760,276.437 118.860,276.000 118.200 C 275.563 117.540,275.204 116.677,275.203 116.282 C 275.201 115.887,274.750 114.718,274.200 113.685 C 273.650 112.652,273.199 111.535,273.197 111.203 C 273.196 110.871,272.837 110.060,272.400 109.400 C 271.963 108.740,271.604 107.798,271.603 107.306 C 271.599 105.974,269.545 103.809,268.900 104.458 M270.661 106.400 C 271.020 106.400,271.200 106.916,271.200 107.946 C 271.200 108.842,271.512 109.893,271.942 110.446 C 272.350 110.971,272.805 112.057,272.953 112.860 C 273.100 113.663,273.468 114.524,273.769 114.774 C 274.070 115.024,274.441 115.891,274.593 116.701 C 274.744 117.510,275.188 118.629,275.579 119.186 C 275.970 119.744,276.411 120.870,276.561 121.689 C 276.710 122.508,277.068 123.318,277.355 123.489 C 277.643 123.660,277.988 124.497,278.122 125.350 C 278.256 126.202,278.633 127.195,278.960 127.556 C 279.286 127.916,279.732 129.005,279.950 129.975 C 280.168 130.945,280.628 131.896,280.973 132.089 C 281.345 132.297,281.600 132.977,281.600 133.758 C 281.600 134.568,281.908 135.355,282.400 135.800 C 282.884 136.238,283.200 137.032,283.200 137.808 C 283.200 138.514,283.532 139.521,283.938 140.046 C 284.344 140.571,284.796 141.618,284.943 142.374 C 285.089 143.129,285.485 144.052,285.822 144.424 C 286.159 144.796,286.542 145.798,286.674 146.650 C 286.806 147.503,287.248 148.522,287.657 148.916 C 288.097 149.340,288.400 150.189,288.400 151.002 C 288.400 151.930,288.641 152.501,289.146 152.771 C 289.654 153.043,289.961 153.776,290.106 155.061 C 290.226 156.124,290.599 157.156,290.959 157.420 C 291.312 157.677,291.600 158.339,291.600 158.890 C 291.600 159.441,291.945 160.331,292.367 160.867 C 292.789 161.404,293.259 162.510,293.412 163.325 C 293.565 164.140,294.030 165.239,294.445 165.767 C 294.860 166.294,295.200 167.193,295.200 167.763 C 295.200 168.333,295.536 169.136,295.947 169.547 C 296.357 169.957,296.818 171.124,296.970 172.140 C 297.122 173.156,297.512 174.135,297.836 174.316 C 298.160 174.498,298.535 175.356,298.669 176.223 C 298.804 177.090,299.248 178.122,299.657 178.516 C 300.066 178.909,300.400 179.740,300.400 180.362 C 300.400 180.983,300.732 181.921,301.139 182.446 C 301.545 182.971,301.987 184.094,302.121 184.943 C 302.254 185.791,302.622 186.691,302.937 186.943 C 303.253 187.194,303.636 188.110,303.788 188.979 C 303.941 189.847,304.411 190.996,304.833 191.533 C 305.255 192.069,305.600 192.950,305.600 193.491 C 305.600 194.031,305.960 194.931,306.400 195.491 C 306.840 196.050,307.200 197.024,307.200 197.654 C 307.200 198.284,307.560 199.160,308.000 199.600 C 308.444 200.044,308.800 200.933,308.800 201.600 C 308.800 202.260,309.132 203.132,309.538 203.538 C 309.943 203.943,310.385 204.955,310.520 205.787 C 310.655 206.619,311.051 207.615,311.400 208.000 C 311.749 208.385,312.139 209.345,312.267 210.133 C 312.395 210.921,312.837 211.871,313.250 212.245 C 313.662 212.618,314.000 213.453,314.000 214.100 C 314.000 214.747,314.335 215.754,314.745 216.338 C 315.154 216.922,315.614 218.084,315.767 218.921 C 315.919 219.758,316.291 220.537,316.592 220.652 C 316.894 220.768,317.267 221.614,317.421 222.531 C 317.576 223.449,318.039 224.629,318.451 225.154 C 318.863 225.679,319.200 226.624,319.200 227.254 C 319.200 227.884,319.560 228.760,320.000 229.200 C 320.440 229.640,320.800 230.516,320.800 231.146 C 320.800 231.776,321.134 232.721,321.542 233.246 C 321.950 233.771,322.405 234.857,322.553 235.660 C 322.700 236.463,323.082 237.336,323.400 237.600 C 323.718 237.864,324.097 238.737,324.242 239.540 C 324.386 240.343,324.665 241.204,324.862 241.453 C 325.092 241.744,324.990 241.995,324.577 242.153 C 323.348 242.625,76.000 242.436,76.000 241.963 C 76.000 241.723,76.360 241.069,76.800 240.509 C 77.240 239.950,77.600 239.156,77.600 238.746 C 77.600 238.336,77.960 237.640,78.400 237.200 C 78.840 236.760,79.200 236.113,79.200 235.763 C 79.200 235.413,79.560 234.669,80.000 234.109 C 80.440 233.550,80.800 232.781,80.800 232.400 C 80.800 232.019,81.135 231.279,81.545 230.754 C 81.955 230.229,82.429 229.350,82.600 228.800 C 82.771 228.250,83.245 227.371,83.655 226.846 C 84.065 226.321,84.400 225.630,84.400 225.309 C 84.400 224.989,84.760 224.269,85.200 223.709 C 85.640 223.150,86.000 222.384,86.000 222.007 C 86.000 221.631,86.365 220.902,86.811 220.387 C 87.257 219.873,87.734 218.991,87.872 218.426 C 88.009 217.862,88.455 216.971,88.861 216.446 C 89.267 215.921,89.600 215.230,89.600 214.909 C 89.600 214.589,89.960 213.869,90.400 213.309 C 90.840 212.750,91.200 211.984,91.200 211.607 C 91.200 211.231,91.560 210.507,92.000 210.000 C 92.440 209.493,92.800 208.773,92.800 208.400 C 92.800 208.027,93.165 207.302,93.611 206.787 C 94.057 206.273,94.534 205.391,94.672 204.826 C 94.809 204.262,95.255 203.371,95.661 202.846 C 96.067 202.321,96.400 201.556,96.400 201.146 C 96.400 200.736,96.760 200.040,97.200 199.600 C 97.640 199.160,98.000 198.513,98.000 198.163 C 98.000 197.813,98.360 197.069,98.800 196.509 C 99.240 195.950,99.600 195.184,99.600 194.807 C 99.600 194.431,99.965 193.702,100.411 193.187 C 100.857 192.673,101.334 191.791,101.472 191.226 C 101.609 190.662,102.055 189.771,102.461 189.246 C 102.867 188.721,103.200 188.030,103.200 187.709 C 103.200 187.389,103.560 186.669,104.000 186.109 C 104.440 185.550,104.800 184.784,104.800 184.408 C 104.800 184.032,105.244 183.207,105.787 182.575 L 106.775 181.426 113.287 187.891 C 135.365 209.807,136.107 210.442,137.216 208.370 C 137.461 207.913,138.007 207.193,138.430 206.770 C 138.854 206.346,139.200 205.683,139.200 205.296 C 139.200 204.909,139.560 204.368,140.000 204.093 C 140.440 203.818,140.800 203.353,140.800 203.059 C 140.800 202.765,141.150 202.207,141.577 201.821 C 142.005 201.434,142.469 200.596,142.609 199.959 C 142.749 199.321,143.033 198.800,143.240 198.800 C 143.448 198.800,143.837 198.305,144.106 197.700 C 144.374 197.095,144.911 196.251,145.297 195.825 C 145.684 195.398,146.000 194.766,146.000 194.421 C 146.000 194.075,146.360 193.568,146.800 193.293 C 147.240 193.018,147.600 192.442,147.600 192.012 C 147.600 191.583,147.938 190.909,148.350 190.516 C 148.763 190.122,149.225 189.395,149.377 188.900 C 149.529 188.405,149.800 188.000,149.978 188.000 C 150.157 188.000,150.542 187.423,150.834 186.717 C 151.127 186.012,151.688 185.112,152.083 184.717 C 152.477 184.323,152.800 183.758,152.800 183.462 C 152.800 183.166,153.160 182.598,153.600 182.200 C 154.040 181.802,154.400 181.187,154.400 180.834 C 154.400 180.481,154.744 179.978,155.164 179.715 C 155.584 179.453,156.049 178.690,156.196 178.019 C 156.343 177.349,156.638 176.800,156.852 176.800 C 157.066 176.800,157.491 176.201,157.797 175.468 C 158.103 174.736,158.634 173.904,158.977 173.619 C 159.320 173.335,159.600 172.770,159.600 172.365 C 159.600 171.960,159.945 171.443,160.367 171.217 C 160.790 170.991,161.254 170.265,161.399 169.603 C 161.545 168.941,161.833 168.400,162.040 168.400 C 162.248 168.400,162.638 167.907,162.909 167.305 C 163.179 166.704,163.715 165.894,164.100 165.505 C 164.485 165.117,164.800 164.446,164.800 164.014 C 164.800 163.582,165.160 163.035,165.600 162.800 C 166.040 162.565,166.400 162.046,166.400 161.648 C 166.400 161.250,166.760 160.598,167.200 160.200 C 167.640 159.802,168.000 159.150,168.000 158.752 C 168.000 158.354,168.345 157.843,168.767 157.617 C 169.190 157.391,169.657 156.653,169.805 155.976 C 169.954 155.300,170.322 154.651,170.622 154.536 C 170.923 154.421,171.288 153.952,171.434 153.494 C 171.579 153.036,172.036 152.299,172.449 151.855 C 172.862 151.412,173.200 150.729,173.200 150.339 C 173.200 149.948,173.558 149.437,173.995 149.203 C 174.433 148.968,174.904 148.327,175.042 147.776 C 175.220 147.067,175.490 146.838,175.970 146.990 C 176.700 147.222,192.875 163.226,193.119 163.958 C 193.200 164.201,193.510 164.400,193.806 164.400 C 194.103 164.400,194.460 164.760,194.600 165.200 C 194.740 165.640,195.112 166.000,195.427 166.000 C 195.742 166.000,196.000 166.155,196.000 166.344 C 196.000 167.494,214.365 185.096,215.366 184.904 C 216.465 184.694,218.000 183.086,218.000 182.146 C 218.000 181.846,218.270 181.600,218.600 181.600 C 218.930 181.600,219.200 181.344,219.200 181.031 C 219.200 180.718,219.650 179.927,220.200 179.273 C 220.750 178.619,221.200 177.839,221.200 177.538 C 221.200 177.238,221.560 176.768,222.000 176.493 C 222.440 176.218,222.800 175.753,222.800 175.459 C 222.800 175.165,223.160 174.598,223.600 174.200 C 224.040 173.802,224.400 173.260,224.400 172.996 C 224.400 172.733,224.850 172.031,225.400 171.438 C 225.950 170.844,226.400 170.098,226.400 169.779 C 226.400 169.461,226.589 169.200,226.820 169.200 C 227.052 169.200,227.507 168.615,227.832 167.900 C 228.158 167.185,229.138 165.610,230.011 164.400 C 230.884 163.190,231.599 162.018,231.599 161.796 C 231.600 161.574,231.960 161.168,232.400 160.893 C 232.840 160.618,233.200 160.153,233.200 159.859 C 233.200 159.565,233.560 158.998,234.000 158.600 C 234.440 158.202,234.800 157.550,234.800 157.152 C 234.800 156.754,235.160 156.235,235.600 156.000 C 236.040 155.765,236.400 155.322,236.400 155.017 C 236.400 154.711,236.850 153.927,237.400 153.273 C 237.950 152.619,238.400 151.926,238.400 151.731 C 238.400 151.537,238.760 151.070,239.200 150.693 C 239.640 150.316,240.000 149.764,240.000 149.466 C 240.000 149.168,240.360 148.598,240.800 148.200 C 241.240 147.802,241.600 147.187,241.600 146.834 C 241.600 146.481,241.960 145.968,242.400 145.693 C 242.840 145.418,243.200 145.003,243.200 144.770 C 243.200 144.537,243.650 143.757,244.200 143.036 C 244.750 142.314,245.200 141.516,245.200 141.262 C 245.200 141.008,245.354 140.800,245.543 140.800 C 245.732 140.800,246.574 139.675,247.415 138.300 C 248.256 136.925,249.181 135.656,249.472 135.480 C 249.762 135.304,250.000 134.913,250.000 134.611 C 250.000 134.309,250.450 133.527,251.000 132.873 C 251.550 132.219,252.000 131.439,252.000 131.138 C 252.000 130.838,252.360 130.368,252.800 130.093 C 253.240 129.818,253.600 129.353,253.600 129.059 C 253.600 128.765,253.960 128.198,254.400 127.800 C 254.840 127.402,255.200 126.860,255.200 126.596 C 255.200 126.333,255.650 125.631,256.200 125.038 C 256.750 124.444,257.200 123.726,257.200 123.441 C 257.200 123.157,257.560 122.598,258.000 122.200 C 258.440 121.802,258.800 121.228,258.800 120.925 C 258.800 120.623,259.077 120.269,259.415 120.139 C 259.753 120.009,260.298 119.340,260.626 118.651 C 261.619 116.566,262.337 115.436,262.957 114.982 C 263.281 114.745,263.670 114.062,263.819 113.465 C 263.969 112.868,264.431 112.197,264.846 111.975 C 265.261 111.753,265.600 111.237,265.600 110.829 C 265.600 110.420,265.864 109.984,266.187 109.860 C 266.510 109.736,267.023 109.042,267.325 108.317 C 267.628 107.593,268.174 106.753,268.538 106.451 C 268.902 106.149,269.212 105.609,269.227 105.251 C 269.246 104.785,269.377 104.855,269.688 105.500 C 269.927 105.995,270.365 106.400,270.661 106.400 " stroke="none" fill="#cccccc" fill-rule="evenodd">
</path></g></svg>