<?xml version="1.0" encoding="UTF-8"?>
<svg xmlns="http://www.w3.org/2000/svg" xmlns:xlink="http://www.w3.org/1999/xlink" viewBox="0 0 480 480" width="480px" height="480px">
<g id="surface26851632">
<path style=" stroke:none;fill-rule:nonzero;fill:rgb(27.843139%,24.705882%,24.313726%);fill-opacity:1;" d="M 263.03125 48 C 277.71875 48 290.511719 58.011719 294.0625 72.25 L 296 80 L 432 80 C 449.679688 80 464 94.320312 464 112 L 464 192 L 379.59375 192 C 374.042969 182.480469 363.855469 176 352.03125 176 C 340.207031 176 329.972656 182.480469 324.4375 192 L 155.5625 192 C 150.011719 182.480469 139.808594 176 128 176 C 116.191406 176 105.988281 182.480469 100.4375 192 L 16 192 L 16 112 C 16 94.320312 30.320312 80 48 80 L 184 80 L 185.9375 72.25 C 189.503906 58.011719 202.3125 48 217 48 Z M 100.4375 224 C 105.988281 233.519531 116.191406 240 128 240 C 139.808594 240 150.011719 233.519531 155.5625 224 L 324.4375 224 C 325.585938 225.972656 326.9375 227.816406 328.457031 229.496094 C 319.210938 232.128906 310.34375 235.664062 301.960938 240 C 255.652344 263.9375 224 312.269531 224 368 C 224 379 225.234375 389.707031 227.566406 400 L 64 400 C 46.320312 400 32 385.679688 32 368 L 32 224 Z M 379.5625 224 L 448 224 L 448 248.246094 C 428.058594 234.898438 404.597656 226.402344 379.304688 224.4375 C 379.390625 224.292969 379.476562 224.144531 379.5625 224 Z M 379.5625 224 "/>
<path style=" stroke:none;fill-rule:nonzero;fill:rgb(27.843139%,24.705882%,24.313726%);fill-opacity:1;" d="M 368 256 C 306.144531 256 256 306.144531 256 368 C 256 429.855469 306.144531 480 368 480 C 429.855469 480 480 429.855469 480 368 C 480 306.144531 429.855469 256 368 256 Z M 368 448 C 359.167969 448 352 440.832031 352 432 C 352 423.167969 359.167969 416 368 416 C 376.832031 416 384 423.167969 384 432 C 384 440.832031 376.832031 448 368 448 Z M 390.816406 370.753906 C 383.503906 377.503906 379.039062 381.921875 379.039062 387.3125 L 356.960938 387.3125 C 356.960938 371.984375 367.425781 362.320312 375.839844 354.542969 C 384.65625 346.398438 390.0625 340.960938 390.0625 332.144531 C 390.0625 319.984375 380.160156 310.078125 368 310.078125 C 355.839844 310.078125 345.9375 319.96875 345.9375 332.144531 L 323.855469 332.144531 C 323.855469 307.792969 343.664062 288 368 288 C 392.335938 288 412.144531 307.792969 412.144531 332.144531 C 412.144531 351.054688 400.320312 361.96875 390.816406 370.753906 Z M 390.816406 370.753906 "/>
</g>
</svg>
