<?xml version="1.0" standalone="no"?>
<!DOCTYPE svg PUBLIC "-//W3C//DTD SVG 20010904//EN"
 "http://www.w3.org/TR/2001/REC-SVG-20010904/DTD/svg10.dtd">
<svg version="1.0" xmlns="http://www.w3.org/2000/svg"
 width="512.000000pt" height="512.000000pt" viewBox="0 0 512.000000 512.000000"
 preserveAspectRatio="xMidYMid meet">

<g transform="translate(0.000000,512.000000) scale(0.100000,-0.100000)"
fill="#473F3E" stroke="none">
<path d="M1565 4725 c-528 -217 -1038 -427 -1133 -467 l-173 -71 521 -214 522
-214 1125 482 c687 294 1120 485 1112 489 -8 4 -224 94 -480 199 -295 121
-479 191 -500 191 -21 -1 -401 -151 -994 -395z"/>
<path d="M2860 4075 c-608 -260 -1111 -477 -1119 -482 -10 -6 112 -61 403
-180 l417 -172 1149 472 c1003 412 1146 473 1127 483 -35 18 -856 354 -864
354 -5 -1 -505 -214 -1113 -475z"/>
<path d="M110 2458 l0 -1434 22 -44 c13 -24 34 -52 48 -62 18 -13 1816 -757
2173 -899 l47 -19 0 1479 0 1479 -447 183 c-245 101 -450 186 -455 187 -4 2
-8 -158 -8 -355 0 -211 -4 -373 -10 -395 -13 -46 -77 -105 -125 -114 -78 -14
-164 39 -185 114 -6 23 -10 202 -10 463 l0 426 -505 207 c-278 114 -514 210
-525 213 -20 5 -20 0 -20 -1429z"/>
<path d="M3853 3423 l-1133 -466 0 -1478 c0 -1404 1 -1478 18 -1472 130 48
2184 898 2202 911 14 10 35 38 48 62 l22 44 0 1433 c0 1140 -3 1433 -12 1432
-7 0 -523 -210 -1145 -466z"/>
</g>
</svg>
