<?xml version="1.0" standalone="no"?>
<!DOCTYPE svg PUBLIC "-//W3C//DTD SVG 20010904//EN"
 "http://www.w3.org/TR/2001/REC-SVG-20010904/DTD/svg10.dtd">
<svg version="1.0" xmlns="http://www.w3.org/2000/svg"
 width="512.000000pt" height="512.000000pt" viewBox="0 0 512.000000 512.000000"
 preserveAspectRatio="xMidYMid meet">

<g transform="translate(0.000000,512.000000) scale(0.100000,-0.100000)"
fill="#473F3E" stroke="none">
<path d="M142 5109 c-46 -14 -118 -88 -131 -135 -17 -60 -15 -4773 1 -4828 17
-57 82 -119 141 -135 95 -27 195 13 244 97 l28 47 3 243 4 242 2128 0 2128 0
4 -242 3 -243 28 -47 c49 -84 149 -124 244 -97 59 16 124 78 141 135 18 60 18
4768 0 4828 -17 57 -82 119 -141 135 -95 27 -195 -13 -244 -97 l-28 -47 -3
-777 -3 -778 -2129 0 -2129 0 -3 778 -3 777 -28 47 c-49 84 -160 126 -255 97z
m4548 -3079 l0 -960 -2130 0 -2130 0 0 960 0 960 2130 0 2130 0 0 -960z"/>
<path d="M2625 2551 c-11 -5 -29 -19 -40 -31 -20 -22 -20 -36 -20 -601 l0
-579 28 -27 27 -28 673 -3 c608 -3 675 -1 703 13 18 9 37 28 43 41 8 18 11
194 11 585 0 608 0 602 -55 627 -18 8 -103 12 -274 12 l-249 0 -4 -103 c-4
-120 -24 -164 -91 -198 -74 -38 -153 -14 -204 61 -20 29 -23 46 -23 136 l0
104 -252 -1 c-139 0 -262 -4 -273 -8z"/>
<path d="M913 2334 c-62 -31 -63 -35 -63 -518 0 -480 1 -491 59 -520 26 -14
101 -16 586 -16 502 0 560 2 585 17 16 9 33 27 39 40 7 16 11 174 11 482 0
447 0 459 -21 484 -32 41 -76 48 -274 45 l-180 -3 -5 -110 c-4 -93 -8 -115
-27 -141 -46 -64 -149 -84 -214 -41 -56 37 -79 95 -79 204 l0 93 -192 0 c-155
0 -199 -4 -225 -16z"/>
<path d="M1099 4661 l-29 -29 0 -472 0 -472 29 -29 29 -29 792 0 792 0 29 29
29 29 0 472 0 472 -29 29 -29 29 -316 0 -316 0 0 -95 c0 -113 -18 -160 -76
-196 -78 -48 -183 -19 -224 62 -16 30 -20 58 -20 134 l0 95 -316 0 -316 0 -29
-29z"/>
</g>
</svg>
