<?xml version="1.0" standalone="no"?>
<!DOCTYPE svg PUBLIC "-//W3C//DTD SVG 20010904//EN"
 "http://www.w3.org/TR/2001/REC-SVG-20010904/DTD/svg10.dtd">
<svg version="1.0" xmlns="http://www.w3.org/2000/svg"
 width="512.000000pt" height="512.000000pt" viewBox="0 0 512.000000 512.000000"
 preserveAspectRatio="xMidYMid meet">

<g transform="translate(0.000000,512.000000) scale(0.100000,-0.100000)"
fill="#473F3E" stroke="none">
<path d="M2499 5107 c-15 -7 -574 -389 -1243 -851 -1057 -728 -1219 -843
-1236 -877 -20 -37 -20 -68 -20 -1615 0 -1219 3 -1586 12 -1618 16 -53 81
-118 134 -134 27 -8 118 -12 268 -12 l226 0 0 1300 c0 1153 2 1305 16 1338 19
47 58 88 106 113 36 18 85 19 1798 19 1713 0 1762 -1 1798 -19 48 -25 87 -66
106 -113 14 -33 16 -185 16 -1338 l0 -1300 226 0 c150 0 241 4 268 12 53 16
118 81 134 134 9 32 12 399 12 1620 l0 1579 -23 39 c-18 33 -217 173 -1245
881 -673 464 -1234 846 -1245 849 -34 9 -80 6 -108 -7z"/>
<path d="M1983 2335 c-64 -28 -64 -25 -61 -535 l3 -460 28 -27 27 -28 580 0
580 0 27 28 28 27 3 460 c2 405 1 464 -13 491 -27 52 -62 59 -274 59 l-189 0
-4 -109 c-2 -92 -6 -114 -24 -138 -73 -98 -195 -98 -268 0 -18 24 -22 46 -24
138 l-4 109 -191 0 c-141 -1 -200 -4 -224 -15z"/>
<path d="M1233 1054 c-62 -31 -63 -35 -63 -518 0 -480 1 -491 59 -520 26 -14
101 -16 586 -16 502 0 560 2 585 17 16 9 33 27 39 40 7 16 11 174 11 482 0
447 0 459 -21 484 -32 41 -76 48 -274 45 l-180 -3 -5 -110 c-4 -93 -8 -115
-27 -141 -46 -64 -149 -84 -214 -41 -56 37 -79 95 -79 204 l0 93 -192 0 c-155
0 -199 -4 -225 -16z"/>
<path d="M2734 1056 c-66 -29 -64 -13 -64 -518 0 -307 4 -465 11 -481 6 -13
23 -31 39 -40 25 -15 83 -17 585 -17 485 0 560 2 586 16 58 29 59 40 59 520 0
485 0 488 -65 518 -26 13 -71 16 -223 16 l-190 0 -4 -103 c-4 -116 -20 -156
-78 -194 -63 -43 -167 -23 -213 41 -19 26 -23 48 -27 141 l-5 110 -190 2
c-143 2 -198 -1 -221 -11z"/>
</g>
</svg>
